<svg xmlns="http://www.w3.org/2000/svg" viewBox="0 0 82.29 82.29"><title>Recurso 1</title><g id="afd5f28a-58d0-47ac-898e-697b63c7a16d" data-name="Capa 2"><g id="f95c9acc-197d-409f-b25c-2d68ba7832ca" data-name="Capa 1"><circle id="a5f11457-a8ef-49fa-a125-f5075126bd18" data-name="Oval" cx="41.14" cy="41.14" r="41.14" fill="#56c2e8"/><path d="M58.93,41.21a5.19,5.19,0,0,0-5.18-5.16,5.13,5.13,0,0,0-3.7,1.59.15.15,0,0,1-.12,0h0a5.25,5.25,0,0,0-1.71-.29,5,5,0,0,0-2.1.45h-.16a5.14,5.14,0,0,0-7,.79.14.14,0,0,1-.11,0h-.08a2,2,0,0,0-.5-.21,2.15,2.15,0,0,0-.71-.11A2.4,2.4,0,0,0,35.24,40a.15.15,0,0,1-.15.11H34.8a5.11,5.11,0,0,0-3.55,1.43l-1,1,1.37.09q4.6.28,9.6.28h.58a135.36,135.36,0,0,0,16.6-1l.53-.11Z" fill="#fbaf01"/><path d="M45.31,24.23a1.18,1.18,0,0,0-1.18,1.18h0a1.18,1.18,0,1,0,1.18-1.18Z" fill="#fbaf01"/><path d="M35.32,17.58a1.83,1.83,0,1,0,1.82,1.82A1.83,1.83,0,0,0,35.32,17.58Z" fill="#fbaf01"/><path d="M36.61,30.38a.54.54,0,0,0,0,1.08.54.54,0,0,0,.54-.54A.54.54,0,0,0,36.61,30.38Z" fill="#fbaf01"/><polygon points="34.8 40.72 34.8 40.72 34.8 40.72 34.8 40.72" fill="#fbaf01"/><path d="M35.32,16.08a3.33,3.33,0,1,0,3.33,3.32A3.33,3.33,0,0,0,35.32,16.08Zm0,5.15a1.83,1.83,0,1,1,1.82-1.83A1.83,1.83,0,0,1,35.32,21.23Z" fill="#fbaf01"/><path d="M45.31,22.73a2.68,2.68,0,0,0-2.69,2.68h0a2.69,2.69,0,1,0,5.37,0A2.68,2.68,0,0,0,45.31,22.73Zm0,3.86a1.18,1.18,0,0,1-1.18-1.18h0a1.18,1.18,0,1,1,1.18,1.18Z" fill="#fbaf01"/><path d="M36.61,28.88a2,2,0,1,0,2,2A2,2,0,0,0,36.61,28.88Zm0,2.58a.54.54,0,1,1,.54-.54A.54.54,0,0,1,36.61,31.46Z" fill="#fbaf01"/><path d="M60.07,55.42a.32.32,0,0,1-.14,0,.36.36,0,0,1-.18-.47,7,7,0,0,0,.65-3,.36.36,0,0,1,.71,0,7.87,7.87,0,0,1-.72,3.32A.34.34,0,0,1,60.07,55.42Z" fill="#fff"/><path d="M50.79,66.57a.35.35,0,0,1-.36-.35V62.55H32v3.67a.35.35,0,0,1-.35.35H29.06a.37.37,0,0,1-.34-.24l-1.2-3.94-.23,0a10.71,10.71,0,0,1-8.55-10.45v-7.8L18.42,44l-1-.24a1.64,1.64,0,0,1,.39-3.23,1.75,1.75,0,0,1,.4.05,75.48,75.48,0,0,0,11.58,1.66H30l.12-.19a5.71,5.71,0,0,1,4.49-2.46h.23L35,39.4A2.92,2.92,0,0,1,38.52,38l.24.08.17-.17a5.61,5.61,0,0,1,3.93-1.59,5.55,5.55,0,0,1,3,.88l.17.11.19-.07a5.47,5.47,0,0,1,3.39-.15l.21,0L50,37a5.57,5.57,0,0,1,3.74-1.44,5.66,5.66,0,0,1,5.68,5.5v.46l.45-.07c1.65-.26,3.12-.54,4.36-.85a1.67,1.67,0,0,1,.39-.05,1.58,1.58,0,0,1,1,.35,1.62,1.62,0,0,1,.58.89,1.65,1.65,0,0,1-1.19,2L64,44l-.32.07v7.8a10.7,10.7,0,0,1-8.55,10.45l-.23,0-1.2,3.94a.36.36,0,0,1-.34.24Zm.35-.7h2l1-3.36-.57,0H51.14Zm-21.82,0h2V62.55H28.86l-.56,0Zm-9.88-14a9.94,9.94,0,0,0,8.36,9.83,10.13,10.13,0,0,0,1.6.13H53a10,10,0,0,0,10-10V44.23l-.47.09A123.82,123.82,0,0,1,41.21,46a123.78,123.78,0,0,1-21.29-1.64l-.48-.09ZM17.79,41.25a1.06,1.06,0,0,0-.57.2,1,1,0,0,0-.32.5.92.92,0,0,0,.67,1.15c5.49,1.35,14.33,2.15,23.64,2.15s18.16-.8,23.64-2.15a.94.94,0,0,0,.35-1.65,1,1,0,0,0-.57-.19l-.23,0c-5.3,1.32-14,2.1-23.19,2.1S23.32,42.6,18,41.28a.85.85,0,0,0-.23,0Zm17-.93a4.9,4.9,0,0,0-3.42,1.38l-.66.63.91.05c3.09.2,6.31.3,9.58.3h.69a133.38,133.38,0,0,0,16.47-1l.35,0v-.35a5,5,0,0,0-5-5,4.93,4.93,0,0,0-3.57,1.52.36.36,0,0,1-.25.11l-.12,0a4.85,4.85,0,0,0-1.65-.28,4.78,4.78,0,0,0-2,.43l-.15,0A.31.31,0,0,1,45.8,38a4.94,4.94,0,0,0-6.7.77.4.4,0,0,1-.27.12.34.34,0,0,1-.17-.05,2.67,2.67,0,0,0-.46-.2,2.11,2.11,0,0,0-.66-.1,2.21,2.21,0,0,0-2.11,1.56.37.37,0,0,1-.35.24Z" fill="#fff"/></g></g></svg>