<svg xmlns="http://www.w3.org/2000/svg" viewBox="0 0 500 500"><g id="freepik--Plants--inject-55"><path d="M79.59,404.71q4.91,35,9.83,70l2.56.09C90.35,451,88.61,426.78,79.59,404.71Z" style="fill:#455a64"></path><path d="M106.9,401.43C100,409,97.27,419.31,95.53,429.34c-2.47,14.24-2.7,31.05-2,45.48l3.59.08A197.57,197.57,0,0,1,106.9,401.43Z" style="fill:#455a64"></path><path d="M81.39,446.14c-.79-3.47-1.69-7-3.67-10-2.67-4-7-6.51-11.42-8.48s-9-3.54-13-6.26c4.42,7.25,14.46,9.18,19.57,16,2.54,3.38,3.6,7.61,4.59,11.71,2.17,8.95,3.51,16.7,5.68,25.65h2.91A228.86,228.86,0,0,0,81.39,446.14Z" style="fill:#455a64"></path><path d="M99.78,474.82s2.47-27.81,4.29-32.92,19.09-19.21,18.92-18.55-12.94,16.1-14.77,19.25-5,32.22-5,32.22Z" style="fill:#455a64"></path><path d="M398.53,422.69a9.78,9.78,0,0,1,5.05,5.72,17.35,17.35,0,0,1,.67,7.75c-.57,5-3.43,10.1-6.5,14.11-4.23-3.69-5.21-10.14-5.5-13.43-.45-5.22,1.89-14.92,6.28-14.15" style="fill:#52C7B8"></path><path d="M402.67,458.57a8.3,8.3,0,0,1,2.68-7.9,11,11,0,0,1,8.14-2.54,4.62,4.62,0,0,1,3.57,1.6,3.56,3.56,0,0,1,.06,3.6,7.24,7.24,0,0,1-2.67,2.63c-3.66,2.3-7.64,3.85-11.78,2.61" style="fill:#52C7B8"></path><path d="M397.24,474a6.22,6.22,0,0,1,.15-1c.13-.73.31-1.67.51-2.79a29.22,29.22,0,0,1,2.88-8.92,17.8,17.8,0,0,1,6.4-6.8,12.08,12.08,0,0,1,2.61-1.16c.32-.1.58-.14.75-.19s.27,0,.27,0a18.93,18.93,0,0,0-3.49,1.6,18.45,18.45,0,0,0-6.22,6.76,31.47,31.47,0,0,0-2.94,8.79c-.26,1.17-.47,2.11-.63,2.77A6,6,0,0,1,397.24,474Z" style="fill:#263238"></path><path d="M397.4,430.24a2.39,2.39,0,0,1,.05.45c0,.34.05.77.08,1.3.06,1.12.12,2.75.19,4.76.13,4,.23,9.6.21,15.75s-.18,11.71-.35,15.74c-.08,2-.16,3.64-.23,4.76,0,.54-.06,1-.09,1.3a2.39,2.39,0,0,1-.05.45,1.59,1.59,0,0,1,0-.45c0-.34,0-.77,0-1.3,0-1.17.07-2.79.11-4.77.1-4,.21-9.59.24-15.74s0-11.7-.1-15.73c0-2-.06-3.6-.07-4.77,0-.53,0-1,0-1.3A2.28,2.28,0,0,1,397.4,430.24Z" style="fill:#263238"></path><path d="M395.35,461.63a19.47,19.47,0,0,0-10.62-14.24c-1.41-.68-3.26-1.12-4.42-.07s-.91,2.94-.34,4.41A16.6,16.6,0,0,0,395.25,462" style="fill:#52C7B8"></path><path d="M385.42,452.15a5.33,5.33,0,0,1,.9.4,8.71,8.71,0,0,1,1,.54c.38.24.84.47,1.29.81A15.83,15.83,0,0,1,390.1,455a18.49,18.49,0,0,1,1.57,1.43,19.93,19.93,0,0,1,5,8.29,18.19,18.19,0,0,1,.5,2.07,16.94,16.94,0,0,1,.25,1.83,14.21,14.21,0,0,1,.07,1.53,10.11,10.11,0,0,1,0,1.15,4.78,4.78,0,0,1-.11,1c-.08,0,.06-1.4-.19-3.62a17.12,17.12,0,0,0-.29-1.8,17.85,17.85,0,0,0-.52-2,20.49,20.49,0,0,0-4.88-8.15,18.37,18.37,0,0,0-1.53-1.44c-.48-.44-1-.79-1.43-1.13C386.65,452.81,385.38,452.23,385.42,452.15Z" style="fill:#263238"></path></g><g id="freepik--Character--inject-55"><path d="M320.35,474.94c0-1.94-2.67-195.39-3.11-211.79-.34-12.72-7.53-14.61-8.65-14.83-3.49-.33-6.11.42-8,2.31-4.06,4.05-4.2,12.65-3.91,15.62l-7,.7c-.06-.57-1.32-14,5.93-21.26,3.46-3.46,8.11-4.91,13.81-4.32l.13,0c4.89.7,14.26,6.1,14.68,21.57.44,16.44,3.08,209.94,3.11,211.89Z" style="fill:#455a64"></path><path d="M306.65,236s9.37,2.63,10.48,3.14,6.83,9.43,6.83,9.43l2,6.51-1.33,5.4s-.77.77-1.54-.66a21.29,21.29,0,0,1-1.32-4.74l-2.1-3.33-1.73-1.33s-.36,4.44-1.63,4.77-4.8-.11-5.13-.88l-.33-.78s-2.86,2.32-4.19,1.77a2,2,0,0,1-1.37-1.54,3.29,3.29,0,0,1-2.82.88l-.43-.15a3,3,0,0,1-1.94-2.74h0Z" style="fill:#ffd6be"></path><path d="M309.42,247.83a7.22,7.22,0,0,1-1.49,3.36,8.67,8.67,0,0,1-2.65,2.55c-.13-.12,1-1.29,2.23-2.85S309.26,247.76,309.42,247.83Z" style="fill:#ffb394"></path><path d="M314.32,247.64a8.46,8.46,0,0,1-1.19,3.26,6.53,6.53,0,0,1-2.29,2.61c-.13-.11.93-1.25,1.83-2.87A19.76,19.76,0,0,1,314.32,247.64Z" style="fill:#ffb394"></path><path d="M317.63,247.12a6,6,0,0,1,.45,3,5.93,5.93,0,0,1-.61,3,19.69,19.69,0,0,1,.08-3A18.81,18.81,0,0,1,317.63,247.12Z" style="fill:#ffb394"></path><path d="M236.73,437.25l.35,37.65,49.56-.34c-.3-4.47-26-13.28-26-13.28l.82-24.14Z" style="fill:#52C7B8"></path><g style="opacity:0.6000000000000001"><path d="M245.33,459.35a1.93,1.93,0,0,0-1.4,2.19,2,2,0,0,0,2.29,1.32,2,2,0,0,0,1.46-2.33,2,2,0,0,0-2.54-1.12" style="fill:#fff"></path></g><g style="opacity:0.6000000000000001"><path d="M237.08,474.9l.12-3.8,47.48,1.1s2.21.89,2,2.36Z" style="fill:#fff"></path></g><path d="M261.46,461c0,.23-1.21.34-2.4,1.09s-1.82,1.71-2,1.62.13-1.42,1.58-2.29S261.51,460.82,261.46,461Z" style="fill:#263238"></path><path d="M266.67,463c.05.22-1,.62-1.81,1.59s-1.05,2-1.29,2-.4-1.3.64-2.49S266.66,462.81,266.67,463Z" style="fill:#263238"></path><path d="M269.64,468.89c-.22.05-.56-1.09.06-2.35s1.75-1.76,1.85-1.57-.6.86-1.08,1.9S269.88,468.87,269.64,468.89Z" style="fill:#263238"></path><path d="M261,455.51c-.1.21-1.21-.09-2.58,0s-2.43.51-2.56.32.9-1,2.51-1.11S261.12,455.33,261,455.51Z" style="fill:#263238"></path><path d="M259.8,450a4.76,4.76,0,0,1-2.48,0,11.56,11.56,0,0,1-2.6-.74,12.53,12.53,0,0,1-1.43-.7,3.1,3.1,0,0,1-.75-.55,1,1,0,0,1-.12-1.22,1.37,1.37,0,0,1,1.06-.53,3.56,3.56,0,0,1,.93.12,9.06,9.06,0,0,1,1.55.49,8.73,8.73,0,0,1,2.29,1.4c1.16,1,1.55,1.85,1.47,1.9s-.67-.64-1.85-1.46a9.87,9.87,0,0,0-2.21-1.16,9.11,9.11,0,0,0-1.43-.41c-.53-.13-1-.13-1.11.1s-.05.11.06.26a2.7,2.7,0,0,0,.55.4,14,14,0,0,0,1.32.7,13.71,13.71,0,0,0,2.4.85A18.46,18.46,0,0,1,259.8,450Z" style="fill:#263238"></path><path d="M259.49,450.29c-.09,0-.57-.78-.67-2.26a7.49,7.49,0,0,1,.33-2.57,7.71,7.71,0,0,1,.63-1.43,2,2,0,0,1,1.58-1.19,1.16,1.16,0,0,1,1,.65,2.78,2.78,0,0,1,.25.85,4.66,4.66,0,0,1,0,1.58,5.22,5.22,0,0,1-1.05,2.43c-1,1.23-2,1.51-2,1.43s.76-.56,1.5-1.74a5.16,5.16,0,0,0,.77-2.21,4.41,4.41,0,0,0-.05-1.35c-.08-.5-.28-.9-.47-.85s-.67.38-.87.78a8.17,8.17,0,0,0-.61,1.27,7.88,7.88,0,0,0-.47,2.35C259.36,449.4,259.62,450.26,259.49,450.29Z" style="fill:#263238"></path><path d="M186.49,425.08,169.73,457l42,22.17c1.77-3.91-15.9-23-15.9-23l11.63-20Z" style="fill:#52C7B8"></path><g style="opacity:0.6000000000000001"><path d="M183.72,447.61a1.84,1.84,0,0,0-2.16,1.22,1.87,1.87,0,0,0,1.33,2.15,1.93,1.93,0,0,0,2.28-1.31,2,2,0,0,0-1.63-2.09" style="fill:#fff"></path></g><g style="opacity:0.6000000000000001"><path d="M169.73,457l1.82-3.15,39.54,22.44s1.46,1.75.59,2.88Z" style="fill:#fff"></path></g><path d="M196.57,456.34c-.11.19-1.18-.26-2.52-.17s-2.31.62-2.46.44.76-1.13,2.38-1.21S196.71,456.19,196.57,456.34Z" style="fill:#263238"></path><path d="M200.06,460.39c-.06.21-1.12.07-2.25.52s-1.79,1.21-2,1.09.25-1.28,1.67-1.81S200.15,460.2,200.06,460.39Z" style="fill:#263238"></path><path d="M199.91,466.68c-.21-.06,0-1.18,1.11-2s2.27-.69,2.27-.49-.89.46-1.77,1.12S200.12,466.77,199.91,466.68Z" style="fill:#263238"></path><path d="M198.68,451.48c-.18.13-1-.63-2.17-1.17s-2.29-.67-2.3-.89,1.21-.45,2.61.2S198.86,451.38,198.68,451.48Z" style="fill:#263238"></path><path d="M200.18,446.26a4.74,4.74,0,0,1-2.09-1.12,11.45,11.45,0,0,1-1.86-1.8,11.92,11.92,0,0,1-.89-1.24,2.92,2.92,0,0,1-.38-.81.9.9,0,0,1,.45-1.07,1.31,1.31,0,0,1,1.13,0,2.92,2.92,0,0,1,.74.52,8.65,8.65,0,0,1,1.08,1.11,8.36,8.36,0,0,1,1.3,2.23,3.73,3.73,0,0,1,.38,2.26c-.13,0-.28-.84-.9-2.07a9.88,9.88,0,0,0-1.34-2,8.73,8.73,0,0,0-1-1c-.39-.35-.77-.55-1-.42s-.1.07-.07.24a2.78,2.78,0,0,0,.28.59,11.59,11.59,0,0,0,.8,1.18,13,13,0,0,0,1.64,1.81C199.48,445.68,200.24,446.15,200.18,446.26Z" style="fill:#263238"></path><path d="M199.77,446.39a3.39,3.39,0,0,1,.46-2.2,7,7,0,0,1,1.45-2,6.79,6.79,0,0,1,1.17-.92,1.93,1.93,0,0,1,1.87-.3,1.12,1.12,0,0,1,.59,1,3.19,3.19,0,0,1-.17.84,4.89,4.89,0,0,1-.71,1.34,5,5,0,0,1-2,1.57,3.16,3.16,0,0,1-2.33.3,19.21,19.21,0,0,0,2-.79,4.87,4.87,0,0,0,1.66-1.51,4.32,4.32,0,0,0,.57-1.16c.16-.46.17-.89,0-.93a1.29,1.29,0,0,0-1.08.26,7,7,0,0,0-1.09.8,7.72,7.72,0,0,0-1.46,1.76C200.06,445.58,199.9,446.42,199.77,446.39Z" style="fill:#263238"></path><polygon points="206.8 319.74 223.48 371.68 232.98 457.89 268.83 457.89 267.4 334.46 263.35 308.4 206.8 319.74" style="fill:#263238"></polygon><path d="M214.47,323.84,210,347.48s-6.85,17.18-10.13,24.43c-1.93,4.25-26.27,65.06-26.27,65.06l30.71,13.19,43-76.24,8.94-54Z" style="fill:#263238"></path><path d="M251,457.89a2.72,2.72,0,0,1,0-.32l0-.92-.12-3.55c-.1-3.08-.24-7.54-.48-13.05-.45-11-1.28-26.24-2.21-43S246.38,365,246,354c-.19-5.52-.29-10-.32-13.07,0-1.51,0-2.7,0-3.55,0-.38,0-.69,0-.92a1.14,1.14,0,0,1,0-.32,1.34,1.34,0,0,1,0,.32l.05.92c0,.85.06,2,.11,3.55.1,3.08.25,7.54.48,13.05.45,11,1.28,26.24,2.22,43.05s1.7,32,2.06,43c.19,5.52.28,10,.31,13.07,0,1.51,0,2.7,0,3.55,0,.38,0,.69,0,.92A1.14,1.14,0,0,1,251,457.89Z" style="fill:#455a64"></path><path d="M221.67,365.55a4.24,4.24,0,0,1-.29.81l-.93,2.29L217,377c-2.91,7.12-6.91,16.89-11.33,27.67s-8.48,20.59-11.48,27.63c-1.5,3.52-2.74,6.36-3.61,8.32l-1,2.24a4.89,4.89,0,0,1-.39.77,4.24,4.24,0,0,1,.29-.81l.93-2.28c.84-2,2-4.88,3.46-8.38,2.91-7.13,6.92-16.89,11.34-27.68s8.47-20.58,11.47-27.62c1.5-3.53,2.74-6.37,3.61-8.32l1-2.25A7.52,7.52,0,0,1,221.67,365.55Z" style="fill:#455a64"></path><path d="M245.72,336.09a15,15,0,0,1,.31-2.7c.23-1.65.54-3.95.8-6.48s.42-4.85.52-6.52a16.61,16.61,0,0,1,.24-2.71,12.2,12.2,0,0,1,.13,2.72c0,1.68-.11,4-.37,6.56s-.63,4.85-1,6.49A13.06,13.06,0,0,1,245.72,336.09Z" style="fill:#263238"></path><path d="M233,457.89a2.08,2.08,0,0,1-.07-.36c0-.27-.08-.62-.13-1.06-.12-1-.28-2.34-.48-4.1-.4-3.58-1-8.72-1.67-15.05-1.35-12.74-3.22-30.3-5.29-49.69-.52-5-1-10-1.53-14.69V373c-4.89-15.19-9.18-28.48-12.25-38L208,323.8c-.4-1.29-.71-2.29-.94-3l-.23-.78a2,2,0,0,1-.06-.27,1.34,1.34,0,0,1,.11.26l.27.76,1,3c.87,2.63,2.12,6.41,3.69,11.13l12.41,38v.05c.5,4.72,1,9.64,1.55,14.69,2,19.39,3.82,36.95,5.14,49.7.63,6.34,1.14,11.48,1.5,15.07.16,1.76.29,3.14.38,4.1,0,.45.06.81.09,1.07A2.58,2.58,0,0,1,233,457.89Z" style="fill:#455a64"></path><path d="M304.18,91.14c-1.5-1.51-3.36-2.76-4.28-4.68-1.06-2.22-.64-4.84-1.12-7.26-1-5.07-6-8.57-11.14-9.46s-9-1.32-13.85,1.13c-3.23,1.62-7.9,6.86-7.9,6.86a18.57,18.57,0,0,0-11.6-1.09A20.66,20.66,0,0,0,243.78,83c-1.73,1.93-3.23,4.29-3.21,6.88s1.69,5.28,1.21,7.92-2.92,4.45-5.1,6-4.5,3.68-4.49,6.38c0,2.32,1.74,4.31,2,6.61s-1.11,4.57-1.23,6.93a6.73,6.73,0,0,0,9.09,6.64l33.65,3.12A17.78,17.78,0,0,0,301.18,119a10.44,10.44,0,0,1,.57-3.57,11.27,11.27,0,0,1,2.54-3,15.13,15.13,0,0,0-.11-21.22Z" style="fill:#e0e0e0"></path><path d="M247.63,168.24a15.29,15.29,0,0,1-10.28-18.75l13.47-48.17C254,88.26,264.3,79.24,277.26,82.81l1.18.4A24,24,0,0,1,294,111.83c-2.84,11.31-6.13,23.76-8.2,29.64-4.3,12.16-17.16,9.92-17.16,9.92s-.88,2.86-1.94,6.49a15.29,15.29,0,0,1-19.11,10.36Z" style="fill:#ffd6be"></path><path d="M268.64,151.54a31.17,31.17,0,0,1-14.32-10.1s.87,10.2,13.43,13.24Z" style="fill:#ffb394"></path><path d="M287.34,120.88a1.83,1.83,0,0,1-2.28,1.19,1.75,1.75,0,0,1-1.26-2.18,1.83,1.83,0,0,1,2.27-1.19A1.76,1.76,0,0,1,287.34,120.88Z" style="fill:#263238"></path><path d="M289.43,117c-.3.15-1.29-1.28-3.16-1.91s-3.58-.16-3.7-.46c-.07-.13.29-.47,1-.7a5,5,0,0,1,3.06.08,5,5,0,0,1,2.42,1.8C289.51,116.43,289.57,116.91,289.43,117Z" style="fill:#263238"></path><path d="M269.59,115.85a1.85,1.85,0,0,1-2.28,1.19,1.77,1.77,0,0,1-1.27-2.19,1.85,1.85,0,0,1,2.28-1.19A1.77,1.77,0,0,1,269.59,115.85Z" style="fill:#263238"></path><path d="M271.21,111.3c-.29.16-1.28-1.27-3.16-1.9s-3.57-.16-3.7-.46c-.06-.14.29-.47,1-.7a5,5,0,0,1,3.06.08,4.81,4.81,0,0,1,2.42,1.8C271.3,110.76,271.36,111.24,271.21,111.3Z" style="fill:#263238"></path><path d="M272.86,127.41a13,13,0,0,1,3.24.48c.49.11,1,.17,1.17-.13a2.61,2.61,0,0,0,.16-1.53c-.06-1.31-.12-2.69-.18-4.13-.21-5.87-.18-10.62.05-10.63s.6,4.74.81,10.61c0,1.44.08,2.82.11,4.13a2.91,2.91,0,0,1-.39,2,1.29,1.29,0,0,1-1,.43,3.3,3.3,0,0,1-.85-.16A13.25,13.25,0,0,1,272.86,127.41Z" style="fill:#263238"></path><path d="M264.1,102.87c.23-.53,2.19-.17,4.53-.32s4.25-.68,4.53-.18c.12.24-.23.73-1,1.2a7.85,7.85,0,0,1-6.9.38C264.41,103.56,264,103.12,264.1,102.87Z" style="fill:#e0e0e0"></path><path d="M285.06,107.1c.52-.25,1.52.79,3,1.57s2.84,1.11,2.91,1.68c0,.27-.38.57-1.12.67a4.72,4.72,0,0,1-2.76-.59,4.67,4.67,0,0,1-2-2C284.78,107.72,284.83,107.22,285.06,107.1Z" style="fill:#e0e0e0"></path><path d="M248.71,110.85c-.18-.16-7.56-5.33-10.12,3.12s6.44,9.27,6.53,9S248.71,110.85,248.71,110.85Z" style="fill:#ffd6be"></path><path d="M243.51,119s-.18.06-.46.1a1.52,1.52,0,0,1-1.11-.31c-.79-.6-1.11-2.24-.69-3.78a5.22,5.22,0,0,1,1.05-2,1.77,1.77,0,0,1,1.45-.79.78.78,0,0,1,.75.67c0,.27-.07.42,0,.45s.23-.09.27-.46a1,1,0,0,0-.18-.63,1.12,1.12,0,0,0-.74-.46,2.18,2.18,0,0,0-1.94.84,5.14,5.14,0,0,0-1.22,2.2c-.47,1.72-.08,3.57,1,4.3a1.68,1.68,0,0,0,1.42.18C243.43,119.22,243.53,119.05,243.51,119Z" style="fill:#ffb394"></path><path d="M245.6,147.87s-.21-.08-.42-.4a2.31,2.31,0,0,1-.28-1.54,6,6,0,0,1,.77-2.17,4.75,4.75,0,0,0,.76-2.47c0-.44-.2-.89-.23-1.41a2.27,2.27,0,0,1,.43-1.36,1.91,1.91,0,0,0,.36-1,5.15,5.15,0,0,0-.19-1A1.78,1.78,0,0,1,247,135c.26-.32.53-.28.52-.26s-.2.08-.36.37a1.66,1.66,0,0,0,0,1.36,4.57,4.57,0,0,1,.26,1.06,2.21,2.21,0,0,1-.37,1.25,1.88,1.88,0,0,0-.35,1.12c0,.41.2.86.25,1.4a5.09,5.09,0,0,1-.85,2.71,6.09,6.09,0,0,0-.83,2,2.42,2.42,0,0,0,.1,1.4C245.48,147.7,245.63,147.84,245.6,147.87Z" style="fill:#ffb394"></path><path d="M249.91,150.18s-.23,0-.48-.35a2.79,2.79,0,0,1-.46-1.57,23.82,23.82,0,0,1,.34-5.25,11.34,11.34,0,0,1,.41-1.47,12.16,12.16,0,0,0,.44-1.27c.21-.81-.47-1.33-.83-2a1.41,1.41,0,0,1-.22-1,.83.83,0,0,1,.47-.6c.41-.19.63.07.59.07s-.22-.1-.5.09a.7.7,0,0,0-.29.48,1.2,1.2,0,0,0,.24.74c.17.27.43.51.68.86a1.76,1.76,0,0,1,.3,1.34,8.64,8.64,0,0,1-.44,1.36,13.57,13.57,0,0,0-.38,1.4,34.17,34.17,0,0,0-.47,5.15,2.94,2.94,0,0,0,.28,1.47C249.76,150,249.94,150.15,249.91,150.18Z" style="fill:#ffb394"></path><path d="M301.25,103.47a15.39,15.39,0,0,1-22.13-8,10,10,0,0,1-16.33-4.15,27.28,27.28,0,0,1-6.91,17.28,8.42,8.42,0,0,1-3.11,2.39c-1.24.47-3.91.32-4.86-.6s.07-2.13,0-3.35a25.95,25.95,0,0,1,51.7-4.23" style="fill:#e0e0e0"></path><path d="M268.13,130.43a2.78,2.78,0,0,1,4,3.23,4.07,4.07,0,0,1-2.82,2.52c-.75.06-1.12-.75-1.76-1.17a2.66,2.66,0,0,1-1.11-1.28,2.44,2.44,0,0,1,.5-2.32,3.67,3.67,0,0,1,1.64-1.18" style="fill:#ffb394"></path><path d="M269.72,136.18a3,3,0,0,1-1.92-.53,9.89,9.89,0,0,1-.83-.59,2.82,2.82,0,0,1-.82-.91,2.44,2.44,0,0,1,.53-2.69,3.25,3.25,0,0,1,4.52-.78c1.08.72,1.32,1.54,1.27,1.54A7.3,7.3,0,0,0,271,131a3.52,3.52,0,0,0-1.92-.43,3.26,3.26,0,0,0-2,1.23,2,2,0,0,0-.5,2.14,2.5,2.5,0,0,0,.67.79,9.17,9.17,0,0,0,.75.61A12.6,12.6,0,0,0,269.72,136.18Z" style="fill:#263238"></path><path d="M281.86,106.69a6.34,6.34,0,0,1-3.5-.74,6.49,6.49,0,0,1-2.91-2.1c.1-.11,1.35.86,3.12,1.63S281.88,106.54,281.86,106.69Z" style="fill:#ffb394"></path><path d="M283.58,105.55a11.22,11.22,0,0,1-4.31-1.26,11.35,11.35,0,0,1-3.76-2.45c.09-.13,1.76,1,4,2S283.62,105.4,283.58,105.55Z" style="fill:#ffb394"></path><path d="M263.51,112.79c.05.14-.72.49-1.73.51s-1.79-.3-1.75-.44.8-.06,1.74-.09S263.47,112.65,263.51,112.79Z" style="fill:#ffb394"></path><path d="M263.61,112.57c0,.13-.9,0-1.77-.59s-1.28-1.38-1.16-1.46.67.49,1.46,1S263.65,112.43,263.61,112.57Z" style="fill:#ffb394"></path><path d="M289.66,121.39c0,.14-.3.31-.73.38s-.8,0-.82-.12.31-.32.73-.39S289.64,121.24,289.66,121.39Z" style="fill:#ffb394"></path><path d="M290,122.82c-.07.13-.57,0-1.12-.33s-.94-.65-.87-.78.57,0,1.12.33S290.1,122.7,290,122.82Z" style="fill:#ffb394"></path><path d="M285.84,123.55s-.11.28-.49.49a2.5,2.5,0,0,1-3.11-.61c-.27-.34-.33-.61-.27-.64s.7.77,1.81,1A5.76,5.76,0,0,0,285.84,123.55Z" style="fill:#ffb394"></path><path d="M267.78,117.89c.06.13-1,.53-2.23,0s-1.69-1.55-1.55-1.6.7.69,1.75,1.12S267.75,117.74,267.78,117.89Z" style="fill:#ffb394"></path><path d="M239,105.86a6.83,6.83,0,0,0,1.57,0A5.34,5.34,0,0,0,244,103.5a10.91,10.91,0,0,0,1.38-6.11c0-1.21-.06-2.49,0-3.84a12,12,0,0,1,.78-4.1,11.15,11.15,0,0,1,5.4-5.82,10.72,10.72,0,0,1,10.53.78,6.59,6.59,0,0,1,.94.75c.2.18.3.29.29.3s-.46-.35-1.34-.87a10.83,10.83,0,0,0-4-1.45,10.24,10.24,0,0,0-6.17.92,10.73,10.73,0,0,0-5.13,5.59c-1,2.57-.74,5.31-.79,7.74a11.13,11.13,0,0,1-1.55,6.32,5.41,5.41,0,0,1-3.69,2.34,3.91,3.91,0,0,1-1.2,0A1.69,1.69,0,0,1,239,105.86Z" style="fill:#fff"></path><path d="M300.8,89.39a2,2,0,0,1-.12.42,4,4,0,0,1-.63,1.06A5.7,5.7,0,0,1,296,92.68a8.56,8.56,0,0,1-6.08-2.61c-1.91-1.69-3.44-4-5.42-6.06a12.15,12.15,0,0,0-3.27-2.48,9.46,9.46,0,0,0-3.68-.92,13.89,13.89,0,0,0-6.34,1.32,30,30,0,0,0-3.88,2.16,10.89,10.89,0,0,1-1.4.87,8.12,8.12,0,0,1,1.28-1A24.19,24.19,0,0,1,271,81.6a14,14,0,0,1,6.51-1.47,9.82,9.82,0,0,1,3.88.94,12.59,12.59,0,0,1,3.42,2.57c2,2.1,3.54,4.42,5.37,6.08A8.23,8.23,0,0,0,296,92.31a5.53,5.53,0,0,0,3.95-1.58A7.47,7.47,0,0,0,300.8,89.39Z" style="fill:#fff"></path><path d="M291,79.69a20.82,20.82,0,0,0-3.45-2.8,14,14,0,0,0-4.45-1.74,13.22,13.22,0,0,0-5.8,0A13.81,13.81,0,0,0,272,77.74a16.37,16.37,0,0,0-3.32,3.46,28.93,28.93,0,0,0-2.19,3.88,4.26,4.26,0,0,1,.35-1.16A15,15,0,0,1,268.4,81a16,16,0,0,1,3.33-3.63,14.08,14.08,0,0,1,5.41-2.67,13.34,13.34,0,0,1,6,0,13.77,13.77,0,0,1,4.54,1.9,11.8,11.8,0,0,1,2.52,2.14A4.56,4.56,0,0,1,291,79.69Z" style="fill:#fff"></path><path d="M306,110.34a4.68,4.68,0,0,1-1.43,1.3,12.63,12.63,0,0,1-8.88,2.12,4.89,4.89,0,0,1-1.86-.51A16.16,16.16,0,0,0,306,110.34Z" style="fill:#fff"></path><path d="M301.05,117.23s0,.16-.08.39a1.78,1.78,0,0,1-.82.7,10.59,10.59,0,0,1-3.31.65,10.22,10.22,0,0,1-4.69-.55c0-.16,2.1.21,4.65,0A16.23,16.23,0,0,0,300,118,2.34,2.34,0,0,0,301.05,117.23Z" style="fill:#fff"></path><path d="M234.35,116.47a1.12,1.12,0,0,1-.07-.33,4.65,4.65,0,0,1,0-1,7.27,7.27,0,0,1,5.39-6.56c2-.52,4.24-.22,6.49-.34A21.12,21.12,0,0,0,257,104.5a37.6,37.6,0,0,0,3.69-3.12,5.09,5.09,0,0,1-.81,1,18.16,18.16,0,0,1-2.67,2.39,20.54,20.54,0,0,1-11,4c-2.33.12-4.51-.19-6.41.28a6.78,6.78,0,0,0-4.08,2.88,7.35,7.35,0,0,0-1.22,3.23C234.35,116,234.4,116.46,234.35,116.47Z" style="fill:#fff"></path><path d="M263.91,134.44c-.05,0-.26-.13-.45-.5a2.83,2.83,0,0,1-.24-1.59,2.79,2.79,0,0,1,.65-1.46c.28-.31.53-.41.57-.36s-.57.79-.7,1.89S264,134.36,263.91,134.44Z" style="fill:#ffb394"></path><path d="M266.35,118.65c0,.06-.17.2-.54.26a2.33,2.33,0,0,1-1.42-.23,2.37,2.37,0,0,1-1-1c-.17-.33-.18-.57-.12-.59s.52.69,1.39,1.11S266.31,118.5,266.35,118.65Z" style="fill:#ffb394"></path><path d="M285,124.33s-.1.29-.47.53a2.93,2.93,0,0,1-3.24-.18c-.34-.28-.45-.53-.41-.57s.86.59,2,.63A6.84,6.84,0,0,0,285,124.33Z" style="fill:#ffb394"></path><path d="M330.13,248.71a1.72,1.72,0,0,0,.84-.55,2,2,0,0,0,.38-1.09,2.44,2.44,0,0,0-.48-1.46,11,11,0,0,0-1.28-1.5,4.94,4.94,0,0,1-1.27-2,12.93,12.93,0,0,1,.05-2.58c0-.83-.72-1.35-1.6-1.59-.44-.13-.9-.24-1.35-.41a2.41,2.41,0,0,1-1.21-.85,2,2,0,0,1-.26-1.42A5,5,0,0,0,324,234a2,2,0,0,0-1.39-1.41,16.2,16.2,0,0,0-1.93-.45,3.5,3.5,0,0,1-1.57-.71,2.15,2.15,0,0,1-.67-1.13,1,1,0,0,1,.25-1.05,1.69,1.69,0,0,0-.05,1,2,2,0,0,0,.66,1,3.36,3.36,0,0,0,1.46.57,12.72,12.72,0,0,1,2,.41,3.2,3.2,0,0,1,1,.59,1.9,1.9,0,0,1,.67,1.14c.14.91-.32,1.78.13,2.4s1.4.77,2.29,1a3.31,3.31,0,0,1,1.33.68,1.89,1.89,0,0,1,.63,1.36,13.88,13.88,0,0,0-.09,2.51c.39,1.47,1.78,2.34,2.4,3.45a2.78,2.78,0,0,1,.45,1.68,2.05,2.05,0,0,1-.52,1.2C330.59,248.84,330.1,248.72,330.13,248.71Z" style="fill:#263238"></path><path d="M320.73,237.94s-.16.09-.47,0a2.31,2.31,0,0,1-1.11-.64,11.28,11.28,0,0,0-1.25-1.24,1.4,1.4,0,0,0-.85-.28c-.31,0-.67.15-1.13.16a1.47,1.47,0,0,1-1.18-.61,9.59,9.59,0,0,0-.64-.81,1.53,1.53,0,0,0-1.5-.24,4,4,0,0,1-1.23.15c-.31,0-.46-.13-.45-.16s.17,0,.45,0a7.91,7.91,0,0,0,1.15-.3,2.77,2.77,0,0,1,.88-.16,1.51,1.51,0,0,1,1,.4c.55.51.84,1.29,1.48,1.25.33,0,.7-.14,1.13-.15a1.85,1.85,0,0,1,1.14.4,9.56,9.56,0,0,1,1.24,1.37A2.69,2.69,0,0,0,320.73,237.94Z" style="fill:#263238"></path><path d="M330.1,311a1.62,1.62,0,0,0,.56-.75,3,3,0,0,0-.56-2.46,5.8,5.8,0,0,1-.8-1.77,3,3,0,0,1,.59-2.18,5.1,5.1,0,0,0,1-2,3.58,3.58,0,0,0-.93-2.14,4,4,0,0,1-.59-1.25,2.07,2.07,0,0,1,.18-1.39,10.29,10.29,0,0,0,1.12-2,3,3,0,0,0-.4-1.92c-.3-.57-.66-1.1-.92-1.63a3.53,3.53,0,0,1-.39-1.57,2.21,2.21,0,0,1,.38-1.16c.42-.57.88-.56.86-.54a2,2,0,0,0-.69.65,2.15,2.15,0,0,0-.26,1.06,3.26,3.26,0,0,0,.43,1.39c.26.49.64,1,1,1.6a3.39,3.39,0,0,1,.49,2.22,9.72,9.72,0,0,1-1.13,2.15,1.6,1.6,0,0,0-.14,1.05,3.49,3.49,0,0,0,.53,1.08,4,4,0,0,1,1,2.48,5.19,5.19,0,0,1-1.08,2.22,2.58,2.58,0,0,0-.56,1.86,5.44,5.44,0,0,0,.69,1.66,3.09,3.09,0,0,1,.43,2.71C330.56,310.93,330.08,311,330.1,311Z" style="fill:#263238"></path><path d="M334,311c0-.05.37-.16.55-.75a3,3,0,0,0-.56-2.46,5.8,5.8,0,0,1-.8-1.77,3,3,0,0,1,.59-2.18,5.26,5.26,0,0,0,1-2,3.59,3.59,0,0,0-.94-2.14,4,4,0,0,1-.59-1.25,2.13,2.13,0,0,1,.18-1.39,10.29,10.29,0,0,0,1.12-2,3,3,0,0,0-.4-1.92c-.3-.57-.66-1.1-.91-1.63a3.42,3.42,0,0,1-.4-1.57,2.21,2.21,0,0,1,.38-1.16c.42-.57.88-.56.86-.54a1.77,1.77,0,0,0-.94,1.71,3.1,3.1,0,0,0,.42,1.39c.26.49.64,1,1,1.6a3.39,3.39,0,0,1,.48,2.22,9.72,9.72,0,0,1-1.13,2.15,1.6,1.6,0,0,0-.14,1.05,3.49,3.49,0,0,0,.53,1.08,4,4,0,0,1,1,2.48,5.19,5.19,0,0,1-1.08,2.22,2.58,2.58,0,0,0-.56,1.86,5.44,5.44,0,0,0,.69,1.66,3.09,3.09,0,0,1,.43,2.71C334.46,310.93,334,311,334,311Z" style="fill:#263238"></path><path d="M274.78,412.84s.37-.16.56-.75a3,3,0,0,0-.57-2.46,5.57,5.57,0,0,1-.79-1.77,3,3,0,0,1,.58-2.19,5.15,5.15,0,0,0,1-2,3.66,3.66,0,0,0-.93-2.15,4.2,4.2,0,0,1-.6-1.24,2.15,2.15,0,0,1,.18-1.4,9.5,9.5,0,0,0,1.12-2,3,3,0,0,0-.39-1.92c-.3-.58-.66-1.1-.92-1.64a3.22,3.22,0,0,1-.39-1.56,2.1,2.1,0,0,1,.38-1.16c.42-.57.87-.57.86-.55a2,2,0,0,0-.69.66,2.11,2.11,0,0,0-.26,1.05,3.13,3.13,0,0,0,.43,1.4c.26.49.63,1,1,1.6a3.31,3.31,0,0,1,.48,2.22,9.62,9.62,0,0,1-1.12,2.14,1.57,1.57,0,0,0-.14,1.06,3.6,3.6,0,0,0,.53,1.08,4,4,0,0,1,1,2.47,5.47,5.47,0,0,1-1.08,2.23,2.58,2.58,0,0,0-.56,1.86,5.3,5.3,0,0,0,.69,1.66,3.15,3.15,0,0,1,.43,2.71C275.24,412.81,274.76,412.86,274.78,412.84Z" style="fill:#263238"></path><path d="M278.68,412.84s.37-.16.56-.75a3,3,0,0,0-.56-2.46,5.36,5.36,0,0,1-.8-1.77,3.06,3.06,0,0,1,.58-2.19,5,5,0,0,0,1-2,3.66,3.66,0,0,0-.93-2.15,4,4,0,0,1-.59-1.24,2,2,0,0,1,.18-1.4,10.48,10.48,0,0,0,1.12-2,3,3,0,0,0-.4-1.92c-.3-.58-.66-1.1-.92-1.64a3.22,3.22,0,0,1-.39-1.56,2.1,2.1,0,0,1,.38-1.16c.42-.57.87-.57.86-.55a2,2,0,0,0-.69.66,2.11,2.11,0,0,0-.26,1.05,3.13,3.13,0,0,0,.43,1.4c.26.49.63,1,1,1.6a3.37,3.37,0,0,1,.49,2.22,9.64,9.64,0,0,1-1.13,2.14,1.57,1.57,0,0,0-.14,1.06,3.6,3.6,0,0,0,.53,1.08,4,4,0,0,1,1,2.47,5.47,5.47,0,0,1-1.08,2.23,2.58,2.58,0,0,0-.56,1.86,5.55,5.55,0,0,0,.69,1.66,3.12,3.12,0,0,1,.43,2.71C279.14,412.81,278.66,412.86,278.68,412.84Z" style="fill:#263238"></path><path d="M178,387.79a1.68,1.68,0,0,0,.85-.4,3,3,0,0,0,.66-2.43,5.77,5.77,0,0,1,.14-1.94,3,3,0,0,1,1.55-1.65,5.09,5.09,0,0,0,1.81-1.31,3.58,3.58,0,0,0,.2-2.33,4,4,0,0,1,.06-1.38,2.09,2.09,0,0,1,.82-1.14c.73-.52,1.51-.73,1.94-1.26a3,3,0,0,0,.56-1.88c0-.65-.06-1.28,0-1.87a3.34,3.34,0,0,1,.39-1.57,2.2,2.2,0,0,1,.89-.84,1,1,0,0,1,1-.08,2.18,2.18,0,0,0-.92.25,2.07,2.07,0,0,0-.72.81,3,3,0,0,0-.28,1.43c0,.56.08,1.18.09,1.88a3.33,3.33,0,0,1-.62,2.18,9.37,9.37,0,0,1-2,1.36,1.6,1.6,0,0,0-.62.87,3.6,3.6,0,0,0,0,1.19,4,4,0,0,1-.29,2.66,5.42,5.42,0,0,1-2,1.45,2.6,2.6,0,0,0-1.38,1.37,5.8,5.8,0,0,0-.18,1.79,3.1,3.1,0,0,1-.89,2.59A1,1,0,0,1,178,387.79Z" style="fill:#263238"></path><path d="M181.48,389.63a1.71,1.71,0,0,0,.85-.4,3,3,0,0,0,.66-2.43,5.71,5.71,0,0,1,.14-1.93,3,3,0,0,1,1.55-1.65,5.11,5.11,0,0,0,1.81-1.32,3.57,3.57,0,0,0,.19-2.33,4,4,0,0,1,.07-1.38,2.08,2.08,0,0,1,.82-1.14,10.35,10.35,0,0,0,1.94-1.25,3,3,0,0,0,.56-1.88c0-.65-.06-1.29,0-1.88a3.19,3.19,0,0,1,.39-1.56,2.2,2.2,0,0,1,.88-.85c.64-.3,1-.08,1-.07a2,2,0,0,0-.91.25,2.17,2.17,0,0,0-.73.81,3.2,3.2,0,0,0-.28,1.43c0,.56.09,1.17.1,1.87a3.37,3.37,0,0,1-.62,2.18,9.25,9.25,0,0,1-2,1.36,1.6,1.6,0,0,0-.62.87,3.39,3.39,0,0,0-.05,1.2,4,4,0,0,1-.28,2.65,5.16,5.16,0,0,1-2,1.45,2.61,2.61,0,0,0-1.37,1.37,5.8,5.8,0,0,0-.18,1.79,3.11,3.11,0,0,1-.9,2.6C181.9,389.83,181.45,389.64,181.48,389.63Z" style="fill:#263238"></path><path d="M352.74,169.57a.69.69,0,0,0-.63-.51,1.41,1.41,0,0,0-1,.24,2.38,2.38,0,0,1-1.45.48c-.67-.11-1.07-.7-1.48-1.11a1.45,1.45,0,0,0-.71-.45,1.17,1.17,0,0,0-.82.22c-.57.33-1,1-2,1.19a1.74,1.74,0,0,1-1.26-.44,6.83,6.83,0,0,0-.94-.71c-1.32-.73-2.41,1.78-4.2,1.13-.73-.24-1.28-.63-1.84-.56a2.74,2.74,0,0,0-1.43.74,5.47,5.47,0,0,1-1.21.87,2.26,2.26,0,0,1-1.13.24c-.67-.07-.85-.49-.82-.48a1.51,1.51,0,0,0,.83.28,2.26,2.26,0,0,0,1-.3,5.72,5.72,0,0,0,1.1-.89,3.06,3.06,0,0,1,1.63-.89,5,5,0,0,1,2,.53,2,2,0,0,0,1.85-.55,4.74,4.74,0,0,1,1.06-.64,1.62,1.62,0,0,1,1.39.06c.8.46,1.27,1.19,1.91,1.11s1.15-.71,1.8-1.1a1.56,1.56,0,0,1,1.16-.25,1.78,1.78,0,0,1,.92.59c.45.48.78,1,1.24,1A2.16,2.16,0,0,0,351,169a1.56,1.56,0,0,1,1.14-.18.81.81,0,0,1,.59.45C352.79,169.48,352.75,169.57,352.74,169.57Z" style="fill:#263238"></path><path d="M351.12,166.86s0,.23-.35.37a1.45,1.45,0,0,1-1.35-.28c-.47-.34-.9-.88-1.52-.86a4.54,4.54,0,0,0-2,.86,3,3,0,0,1-1.26.4,2.57,2.57,0,0,1-1.21-.28,8.81,8.81,0,0,0-1.7-.82,1.68,1.68,0,0,0-1.17.07c-.25.13-.33.29-.37.27s0-.21.26-.44a1.76,1.76,0,0,1,1.35-.27,7.88,7.88,0,0,1,1.82.75,2.15,2.15,0,0,0,1,.21,2.66,2.66,0,0,0,1.05-.35,4.51,4.51,0,0,1,2.29-.88A1.76,1.76,0,0,1,349,166c.27.23.47.45.67.62a1.35,1.35,0,0,0,1.06.38C351,167,351.09,166.84,351.12,166.86Z" style="fill:#263238"></path><path d="M307.13,180.45a3.24,3.24,0,0,0-.93-.22,4,4,0,0,0-2.36,1,10.75,10.75,0,0,1-1.57,1.1,2.76,2.76,0,0,1-2.26.19,7.18,7.18,0,0,0-2.18-.67c-.73,0-1.29.64-1.85,1.31a5,5,0,0,1-1,.93,2.42,2.42,0,0,1-1.31.4,19.71,19.71,0,0,1-2.4-.27c-1.5-.23-2.41,1-3.24,1.74a3,3,0,0,1-2.59.93c-.69-.17-.83-.62-.81-.61a1.74,1.74,0,0,0,.85.41,2.83,2.83,0,0,0,2.29-1,16,16,0,0,1,1.37-1.32,3,3,0,0,1,2.17-.63,21.17,21.17,0,0,0,2.33.24,2.59,2.59,0,0,0,1.95-1.16,7,7,0,0,1,.92-1,2.16,2.16,0,0,1,1.31-.51,7.33,7.33,0,0,1,2.34.72,2.32,2.32,0,0,0,1.92-.12,11.67,11.67,0,0,0,1.54-1,3.91,3.91,0,0,1,2.59-.94A1.2,1.2,0,0,1,307.13,180.45Z" style="fill:#263238"></path><path d="M305.63,176.58s-.23-.06-.62,0a2.83,2.83,0,0,0-1.52.63,21.47,21.47,0,0,1-2,1.64,2.68,2.68,0,0,1-1.62.34,7,7,0,0,1-1.64-.46,4.87,4.87,0,0,0-1.51-.36,2.09,2.09,0,0,0-1.28.42c-.75.53-1.27,1.28-1.92,1.72a2.53,2.53,0,0,1-1.73.54c-.45-.07-.62-.27-.61-.29a5.94,5.94,0,0,0,.62.08,2.47,2.47,0,0,0,1.5-.63c.56-.42,1-1.18,1.86-1.81a2.55,2.55,0,0,1,1.57-.54,5,5,0,0,1,1.68.38,6.78,6.78,0,0,0,1.52.44,2.16,2.16,0,0,0,1.33-.25c.81-.44,1.4-1.12,2.06-1.53a2.75,2.75,0,0,1,1.73-.52A.9.9,0,0,1,305.63,176.58Z" style="fill:#263238"></path><path d="M205.93,170.81a5.43,5.43,0,0,0,.31-1,12.34,12.34,0,0,0-.33-2.88,3.5,3.5,0,0,1,.25-2.1,5.66,5.66,0,0,1,1.68-1.73,3.1,3.1,0,0,0,1.41-1.84c.12-.78-.49-1.62-.39-2.72a2.2,2.2,0,0,1,.73-1.37,6.08,6.08,0,0,1,1.17-.8,7.86,7.86,0,0,0,2.07-1.38c1-1.18,1.21-2.74,1.62-3.91a5.5,5.5,0,0,1,1.53-2.56,1.78,1.78,0,0,1,1-.48,7.4,7.4,0,0,0-.85.63,5.69,5.69,0,0,0-1.32,2.52c-.17.59-.3,1.26-.52,2a5.84,5.84,0,0,1-1.09,2.15,8,8,0,0,1-2.18,1.5c-.75.42-1.54,1-1.64,1.79s.5,1.68.39,2.72a2.46,2.46,0,0,1-.64,1.3,7,7,0,0,1-1,.86,5.24,5.24,0,0,0-1.59,1.55,3.18,3.18,0,0,0-.28,1.86,10.3,10.3,0,0,1,.17,3,2.14,2.14,0,0,1-.31.76C206,170.75,206,170.82,205.93,170.81Z" style="fill:#263238"></path><path d="M212.89,146.34s-.25.11-.6.4a3,3,0,0,0-.88,1.69,20.24,20.24,0,0,0-.13,3,4.1,4.1,0,0,1-.47,1.81,3.3,3.3,0,0,1-1.56,1.32c-1.22.55-2.54.74-3.13,1.59s-.21,1.92-.18,2.78a2.24,2.24,0,0,1-.76,2c-.44.3-.77.17-.75.15s.3,0,.63-.31a2.11,2.11,0,0,0,.51-1.76c0-.41-.15-.87-.2-1.39a2.41,2.41,0,0,1,.36-1.69,3.14,3.14,0,0,1,1.53-1.11c.59-.25,1.2-.43,1.77-.69a2.74,2.74,0,0,0,1.33-1.09,3.72,3.72,0,0,0,.44-1.6,16.38,16.38,0,0,1,.26-3,3,3,0,0,1,1.1-1.76C212.6,146.3,212.89,146.32,212.89,146.34Z" style="fill:#263238"></path><path d="M173.82,282.93a1,1,0,0,1-.38-.12,1.63,1.63,0,0,1-.72-.88,3.13,3.13,0,0,1,0-1.81,5.41,5.41,0,0,1,1.22-2,6.7,6.7,0,0,0,1.44-2.3,5,5,0,0,0-.32-3,23.77,23.77,0,0,1-1.14-3.43,4.48,4.48,0,0,1,.09-2,5.17,5.17,0,0,1,1-1.79,25.3,25.3,0,0,0,2.37-3,7.62,7.62,0,0,0,.83-3.33c.1-2.25-.24-4.32,0-6.07a6.88,6.88,0,0,1,1.5-3.83,4.1,4.1,0,0,1,.86-.74,1.56,1.56,0,0,1,.35-.17,9.27,9.27,0,0,0-1.05,1,7,7,0,0,0-1.3,3.74c-.2,1.69.17,3.72.1,6.05a7.91,7.91,0,0,1-.87,3.56,23.52,23.52,0,0,1-2.39,3,5.18,5.18,0,0,0-.89,1.62,4,4,0,0,0-.07,1.76,22.47,22.47,0,0,0,1.09,3.37,5.42,5.42,0,0,1,.28,3.31,7,7,0,0,1-1.58,2.42A5.38,5.38,0,0,0,173,280.2a3,3,0,0,0,0,1.66A1.81,1.81,0,0,0,173.82,282.93Z" style="fill:#263238"></path><path d="M176.28,244.69s.11.05.26.2a2.22,2.22,0,0,1,.49.81,4.6,4.6,0,0,1-.34,3.38c-.57,1.33-1.78,2.66-2.1,4.44a6.29,6.29,0,0,0,.38,2.79,11.08,11.08,0,0,1,.73,3.16,3.54,3.54,0,0,1-.39,1.67,5.19,5.19,0,0,1-1,1.3,15.42,15.42,0,0,0-2,2.11,6.61,6.61,0,0,0-.77,4.67,18,18,0,0,0,.93,3.21,6.11,6.11,0,0,1,.39,1.18,6,6,0,0,1-.58-1.1,15.67,15.67,0,0,1-1.1-3.22,6.89,6.89,0,0,1,.72-5,14.62,14.62,0,0,1,2-2.2,3.61,3.61,0,0,0,1.22-2.62c-.06-2.05-1.42-4-1.06-6a7.39,7.39,0,0,1,1.06-2.54c.44-.72.87-1.36,1.18-2a4.66,4.66,0,0,0,.48-3.17A3.88,3.88,0,0,0,176.28,244.69Z" style="fill:#263238"></path><path d="M284.46,67a4.77,4.77,0,0,0-2.35-1.13,3.47,3.47,0,0,0-2.63.69,11.68,11.68,0,0,1-1.42,1.09,2.26,2.26,0,0,1-1,.31,3.23,3.23,0,0,1-1-.11,10.86,10.86,0,0,0-1.77-.44,2.19,2.19,0,0,0-1.46.49c-.84.64-1.41,1.54-2.16,2a2.23,2.23,0,0,1-2,.38c-.49-.17-.62-.46-.6-.47a3.11,3.11,0,0,0,.65.28,2.16,2.16,0,0,0,1.75-.49c.65-.48,1.15-1.37,2.07-2.12a2.67,2.67,0,0,1,1.79-.62,10,10,0,0,1,1.87.45,2,2,0,0,0,1.63-.15,14.41,14.41,0,0,0,1.38-1,3.84,3.84,0,0,1,4.82.22C284.36,66.69,284.48,66.94,284.46,67Z" style="fill:#263238"></path><path d="M282,64.4a3.75,3.75,0,0,0-2.08-.64,2.7,2.7,0,0,0-1,.26,4.26,4.26,0,0,0-1,.77,3.64,3.64,0,0,1-1.3.89,1.65,1.65,0,0,1-.91,0,4.37,4.37,0,0,1-.79-.34,2,2,0,0,0-1.35-.3,3.21,3.21,0,0,0-1.23.57,17.12,17.12,0,0,1-2,1.5,2.55,2.55,0,0,1-1.7.37c-.42-.1-.59-.28-.57-.3s.22.07.59.1a2.67,2.67,0,0,0,1.5-.48c.59-.35,1.13-1,1.91-1.58a3.48,3.48,0,0,1,1.42-.68,2.4,2.4,0,0,1,1.68.34,1.66,1.66,0,0,0,1.31.29,3.23,3.23,0,0,0,1.12-.76,4.32,4.32,0,0,1,1.15-.8,3,3,0,0,1,2.87.3C281.91,64.18,282,64.38,282,64.4Z" style="fill:#263238"></path><path d="M317.46,183.76,320,183l15.18-8.28,10.43-.77,8.63,2.93a2,2,0,0,1-1.45,2.5l3.71,2.24s-1.07,3.68-5.06,1.53a48.11,48.11,0,0,0-6.32-2.94l-3.3.71,6.54,3.22,3.57,4.35a2.84,2.84,0,0,1-3.92.34,11.43,11.43,0,0,1-3-2.51l-4.28-1.26-5.44.76-1.25,1.08a1.52,1.52,0,0,0,.23,2.45h0l6.91-1.29s2.15.46,1.38,1.84-9.44,4.81-9.44,4.81l-9.12.62Z" style="fill:#ffd6be"></path><path d="M340.25,176.77a9.75,9.75,0,0,1,2.56-.42c.8-.07,1.75-.12,2.8-.17a4.55,4.55,0,0,1,.84,0,4.11,4.11,0,0,1,.87.22,15.83,15.83,0,0,1,1.66.7,56.05,56.05,0,0,1,5.45,3.07,11.3,11.3,0,0,1,2.1,1.51,15.4,15.4,0,0,1-2.29-1.19c-1.4-.77-3.31-1.87-5.48-2.92-.54-.26-1.08-.5-1.6-.69a4.09,4.09,0,0,0-.76-.2,4.94,4.94,0,0,0-.77,0l-2.8.06A19.61,19.61,0,0,1,340.25,176.77Z" style="fill:#ffb394"></path><path d="M338.43,180.42c-.07.14-.88-.16-1.89,0s-1.73.61-1.82.5.56-.87,1.75-1S338.52,180.31,338.43,180.42Z" style="fill:#ffb394"></path><path d="M265.28,167.17,279.37,193l36.46-12.11,10.12,18s-38,22.54-47,24.08-26.36-19.23-26.36-19.23Z" style="fill:#52C7B8"></path><path d="M251.55,145.94s-9.36-8.22-12.43-7.68c-7.55,1.33-14.17,6.26-20,13.82-10,12.91-15,43-22.71,81.94s-13,71-13,71,28,19.75,51.58,27.44a73.36,73.36,0,0,0,44.56-.26l2.12-85.05c-1.6-9.65,2.28-20.44-3.11-46.28a206.34,206.34,0,0,0-12.15-41.76Z" style="fill:#52C7B8"></path><g style="opacity:0.30000000000000004"><path d="M276.73,248.33c-6.26-1.45-15.81-1.65-22.19-2.45s-9.94-1.32-14.86-5.46c-4.46-3.75-7.19-9.2-9-14.75-4.71-14.6-6-27.86-10.68-42.45-.36,17.07-.7,34.28,2.19,51.11,1,5.77,2.64,11.94,7.23,15.57,3.46,2.75,8,3.58,12.4,4.15,11.47,1.49,23.32.21,34.6-2.32,1.23-.28,4.64-.7,4.47-1.95C280.78,248.77,277.73,248.56,276.73,248.33Z"></path></g><path d="M219.08,173.15s4.4,55.87,11.15,64.67,69.86,13.91,69.86,13.91l7.59-18.2L257,219s.61-42.74.3-45.52c-.52-4.77-3.85-27.39-16.59-27.39C226.05,146.05,218,161,219.08,173.15Z" style="fill:#52C7B8"></path><path d="M257,219a46.52,46.52,0,0,0-5.29,2.69c-2.74,1.8-4.58,3.77-4.71,3.65a5.24,5.24,0,0,1,1.13-1.37,20.1,20.1,0,0,1,3.29-2.72A12.94,12.94,0,0,1,257,219Z" style="fill:#263238"></path><path d="M305.83,238a57.6,57.6,0,0,1-7.59-1.72,59.58,59.58,0,0,1-7.46-2.22,57.6,57.6,0,0,1,7.59,1.72A58.93,58.93,0,0,1,305.83,238Z" style="fill:#263238"></path><path d="M256.79,273.73a1.16,1.16,0,0,1-.16.33,6.77,6.77,0,0,1-.57.89,11.41,11.41,0,0,1-2.81,2.69,11.62,11.62,0,0,1-5.42,1.95,14,14,0,0,1-6.94-1.24,20.2,20.2,0,0,1-5.83-4,34.36,34.36,0,0,1-3.78-4.33c-1-1.3-1.72-2.4-2.22-3.16a7.17,7.17,0,0,1-.73-1.21,8,8,0,0,1,.9,1.1c.55.72,1.33,1.78,2.34,3.05a38.48,38.48,0,0,0,3.82,4.2,20.3,20.3,0,0,0,5.71,3.85,13.66,13.66,0,0,0,6.69,1.24,11.53,11.53,0,0,0,5.26-1.78A15,15,0,0,0,256.79,273.73Z" style="fill:#263238"></path><path d="M257.12,276.8s-.06.29-.25.77a22,22,0,0,1-1,2,33.18,33.18,0,0,1-4.11,6,33.6,33.6,0,0,1-5.33,5,20,20,0,0,1-1.83,1.24,2.29,2.29,0,0,1-.72.37,29.47,29.47,0,0,1,2.32-1.9,40.42,40.42,0,0,0,9.35-10.88C256.54,277.8,257.05,276.76,257.12,276.8Z" style="fill:#263238"></path><path d="M196.37,293.57a12.21,12.21,0,0,1-.75,2.4l-2,5.7-1.89,5.74a11.94,11.94,0,0,1-.87,2.36,11.87,11.87,0,0,1,.51-2.46c.39-1.5,1-3.56,1.76-5.8s1.53-4.25,2.13-5.68A11.19,11.19,0,0,1,196.37,293.57Z" style="fill:#263238"></path><path d="M202.55,299.75c.14.07-1.19,3.15-2.67,7s-2.59,7-2.73,7a8.4,8.4,0,0,1,.51-2.15c.39-1.3,1-3.08,1.73-5s1.51-3.65,2.09-4.88A9.38,9.38,0,0,1,202.55,299.75Z" style="fill:#263238"></path><path d="M211.5,303.28a13.66,13.66,0,0,1-.9,2.29L208.2,311c-.89,2-1.69,3.86-2.38,5.42a12.29,12.29,0,0,1-1.08,2.22,10.37,10.37,0,0,1,.74-2.35c.53-1.43,1.31-3.38,2.25-5.5s1.84-4,2.53-5.37A10.33,10.33,0,0,1,211.5,303.28Z" style="fill:#263238"></path><path d="M219.87,308.17a10.26,10.26,0,0,1-.7,2.29c-.51,1.39-1.27,3.28-2.17,5.34s-1.81,3.89-2.49,5.2a10.44,10.44,0,0,1-1.21,2.06,11,11,0,0,1,.88-2.22l2.34-5.25c.86-2,1.64-3.74,2.3-5.27A12.09,12.09,0,0,1,219.87,308.17Z" style="fill:#263238"></path><path d="M228.4,312.44a12.82,12.82,0,0,1-.94,2.17c-.62,1.31-1.45,3.14-2.25,5.21s-1.43,4-1.86,5.36a13.21,13.21,0,0,1-.76,2.23,8.7,8.7,0,0,1,.41-2.33,43.49,43.49,0,0,1,1.73-5.45,44.08,44.08,0,0,1,2.4-5.19A9.17,9.17,0,0,1,228.4,312.44Z" style="fill:#263238"></path><path d="M237.89,316.24a13,13,0,0,1-.66,2.34c-.45,1.43-1,3.41-1.6,5.62s-1,4.24-1.27,5.71a12.56,12.56,0,0,1-.54,2.37,9.81,9.81,0,0,1,.18-2.43,51.33,51.33,0,0,1,1.12-5.77,52.91,52.91,0,0,1,1.76-5.62A9.29,9.29,0,0,1,237.89,316.24Z" style="fill:#263238"></path><path d="M266.72,159.94a3.25,3.25,0,0,1,.28.62l.71,1.83c.6,1.6,1.47,3.91,2.49,6.78A214.1,214.1,0,0,1,277.11,192a172.54,172.54,0,0,1,3.85,23.5c.26,3,.45,5.5.52,7.2,0,.81.06,1.46.09,2a3.38,3.38,0,0,1,0,.69,3.54,3.54,0,0,1-.1-.68c0-.5-.11-1.15-.18-2-.13-1.69-.38-4.14-.69-7.17a190.57,190.57,0,0,0-4-23.42c-2.12-9-4.8-17-6.75-22.78l-2.33-6.83-.62-1.86A3.72,3.72,0,0,1,266.72,159.94Z" style="fill:#263238"></path><path d="M254.35,160.84s.13.33.36,1l.43,1.23c.08.25.18.51.27.79s.13.61.21.94c.15.66.32,1.4.51,2.21s.29,1.73.45,2.7.32,2,.43,3.15.27,2.32.37,3.6c.86,10.16.92,24.81-.16,42.53l-.15-.22,50.68,14.52.27.08-.11.27-7.58,18.2-.07.18-.19,0-3.43-.3c-9.24-.86-18.24-1.88-26.91-3.08s-17-2.57-24.85-4.45a60.31,60.31,0,0,1-11.19-3.64,14.05,14.05,0,0,1-2.47-1.48,6.14,6.14,0,0,1-1.06-1,10.31,10.31,0,0,1-.8-1.19,27.46,27.46,0,0,1-2-5.11,153.44,153.44,0,0,1-4-19.49c-1.8-12-2.77-21.83-3.42-28.59-.32-3.39-.54-6-.68-7.8-.06-.89-.11-1.56-.15-2s0-.69,0-.69,0,.23.09.69.11,1.15.19,2c.18,1.79.44,4.41.78,7.79.71,6.75,1.73,16.54,3.59,28.55a153.47,153.47,0,0,0,4,19.43,27.85,27.85,0,0,0,2,5c.81,1.65,2.46,2.61,4.14,3.45A59.43,59.43,0,0,0,245,243.69c7.8,1.86,16.14,3.21,24.8,4.42s17.66,2.21,26.89,3.06l3.42.3-.26.16,7.59-18.2.16.34L257,219.17l-.17,0V219c1.13-17.69,1.13-32.34.34-42.48-.08-1.27-.23-2.47-.34-3.59s-.24-2.18-.39-3.15-.26-1.88-.43-2.7-.33-1.55-.47-2.21c-.07-.33-.14-.64-.2-.94s-.18-.55-.25-.79l-.4-1.24C254.44,161.19,254.35,160.84,254.35,160.84Z" style="fill:#263238"></path><path d="M247.23,148.4a16.07,16.07,0,0,0-5.25-1.92c-3.4-.59-8.41.3-12.8,3.29a22.9,22.9,0,0,0-5.36,5.13,24,24,0,0,0-3,5.29,38.18,38.18,0,0,0-1.61,5.4,1.66,1.66,0,0,1,0-.39,10.48,10.48,0,0,1,.15-1.13,20.23,20.23,0,0,1,1.11-4,23.56,23.56,0,0,1,3-5.44,22.92,22.92,0,0,1,5.46-5.27c4.5-3.07,9.67-3.93,13.15-3.22a12.46,12.46,0,0,1,3.94,1.4,10.33,10.33,0,0,1,1,.63C247.14,148.3,247.24,148.39,247.23,148.4Z" style="fill:#263238"></path><path d="M287.47,210.4a21.7,21.7,0,0,1-1-2.66,56.14,56.14,0,0,0-2.6-6.26c-1.15-2.38-2.35-4.47-3.21-6a17.21,17.21,0,0,1-1.34-2.49,14,14,0,0,1,1.65,2.3,56.8,56.8,0,0,1,3.37,5.95,39.49,39.49,0,0,1,2.48,6.37A12,12,0,0,1,287.47,210.4Z" style="fill:#263238"></path><path d="M323.31,195a56.76,56.76,0,0,1-11.67,7.51,67,67,0,0,1,5.78-3.84A67.23,67.23,0,0,1,323.31,195Z" style="fill:#263238"></path><path d="M320.73,190.13a56.81,56.81,0,0,1-5.72,3,55.86,55.86,0,0,1-5.83,2.82,31.49,31.49,0,0,1,5.59-3.28A31.94,31.94,0,0,1,320.73,190.13Z" style="fill:#263238"></path><path d="M318.09,184.38a29.16,29.16,0,0,1-5.36,3,29.66,29.66,0,0,1-5.69,2.34A47.87,47.87,0,0,1,312.5,187,48.11,48.11,0,0,1,318.09,184.38Z" style="fill:#263238"></path><path d="M302.78,245.66A47.31,47.31,0,0,1,296,244.4a46,46,0,0,1-6.71-1.78,46.6,46.6,0,0,1,6.82,1.27A46.82,46.82,0,0,1,302.78,245.66Z" style="fill:#263238"></path><path d="M260.17,317.72a10.57,10.57,0,0,1,.48,2.63,43,43,0,0,1,.24,6.47,43.4,43.4,0,0,1-.71,6.43,11.37,11.37,0,0,1-.67,2.6,17,17,0,0,1,.31-2.66c.22-1.63.46-3.88.55-6.39s0-4.77-.08-6.41A19.5,19.5,0,0,1,260.17,317.72Z" style="fill:#263238"></path><path d="M271.8,315.92a10.68,10.68,0,0,1,.62,2.52,44.35,44.35,0,0,1,.36,12.46,10.31,10.31,0,0,1-.47,2.55,17.1,17.1,0,0,1,.11-2.58c.09-1.59.17-3.78.1-6.2s-.28-4.6-.47-6.18A16.24,16.24,0,0,1,271.8,315.92Z" style="fill:#263238"></path><path d="M279.43,315.48a.7.7,0,0,1-.25,0l-.76.09-2.91.27-2.1.19c-.77.05-1.61.06-2.52.09-1.8.05-3.85.18-6.12.09l-3.57-.08c-1.24,0-2.52-.17-3.85-.26-2.67-.13-5.5-.54-8.48-.91a123.94,123.94,0,0,1-37.19-11.54c-2.67-1.38-5.23-2.65-7.51-4-1.15-.69-2.28-1.3-3.32-2l-3-1.95c-1.93-1.21-3.55-2.48-5-3.54-.72-.53-1.41-1-2-1.5l-1.63-1.34L187,287.24l-.58-.49c-.13-.12-.19-.18-.18-.19l.22.15.6.45,2.3,1.8,1.66,1.31c.61.46,1.31.93,2,1.46,1.47,1,3.1,2.28,5,3.46l3,1.92c1,.66,2.18,1.27,3.33,1.94,2.28,1.38,4.84,2.63,7.5,4a127.41,127.41,0,0,0,37.05,11.5c3,.38,5.78.8,8.44.95,1.33.1,2.61.24,3.84.29l3.55.11c2.27.12,4.32,0,6.12,0,.89,0,1.73,0,2.5-.05l2.11-.14,2.91-.18.76,0Z" style="fill:#263238"></path><g style="opacity:0.30000000000000004"><path d="M228.57,294.15l-4.75-.88a39.33,39.33,0,0,0,7.37,4.7,13.35,13.35,0,0,0,8.53,1.08,14.74,14.74,0,0,0,7.13-4.73,28.18,28.18,0,0,0,6-10.43c-5.66,5.86-8.9,8.5-13.59,9.85A23.59,23.59,0,0,1,228.57,294.15Z"></path></g><g style="opacity:0.30000000000000004"><path d="M252.35,219.28a19,19,0,0,0-7.3,1.6,9.52,9.52,0,0,0-4.34,4.73c-.31.75-.47,1.73.13,2.26a1.87,1.87,0,0,0,1.62.24c2.41-.53,4.11-2.58,5.92-4.25a20.22,20.22,0,0,1,8.49-4.62L257,219C255.61,219.08,253.75,219.16,252.35,219.28Z"></path></g><g style="opacity:0.30000000000000004"><path d="M281.41,204.64a112.84,112.84,0,0,0-5.51-16.85,311.56,311.56,0,0,1,5.46,35.26l0-.82A37.62,37.62,0,0,0,281.41,204.64Z"></path></g><path d="M279.43,305.05a1.18,1.18,0,0,1-.16.27c-.12.18-.3.44-.54.76a17.12,17.12,0,0,1-2.42,2.64,9.52,9.52,0,0,1-2.15,1.47,5.18,5.18,0,0,1-3.05.52,4.73,4.73,0,0,1-1.66-.56A6.16,6.16,0,0,1,268,309a18,18,0,0,1-2.16-3.35,12.58,12.58,0,0,0-2.49-3.45,6,6,0,0,0-4.21-1.44,10.44,10.44,0,0,0-4.71,1.35,27.43,27.43,0,0,0-4.26,3.14,34.73,34.73,0,0,1-4.48,3.45,11.18,11.18,0,0,1-5.66,1.77,6.35,6.35,0,0,1-3-.71,8.17,8.17,0,0,1-2.51-1.9,21.71,21.71,0,0,1-3.19-5.45,45.78,45.78,0,0,0-2.75-5.57,8.23,8.23,0,0,0-4.4-3.74,9.25,9.25,0,0,0-5.6.38c-1.81.59-3.51,1.4-5.25,2a11.53,11.53,0,0,1-5.35.8,7.52,7.52,0,0,1-4.48-2.43c-2.28-2.48-3.15-5.56-3.86-8.2a28.21,28.21,0,0,0-2.47-7,9.47,9.47,0,0,0-4-3.79,6,6,0,0,0-3.41-.64c-.8.11-1.19.31-1.21.27l.29-.13a5.31,5.31,0,0,1,.9-.25,6,6,0,0,1,3.52.57,9.53,9.53,0,0,1,4.13,3.82,28.5,28.5,0,0,1,2.58,7c.72,2.64,1.61,5.64,3.81,8a7.09,7.09,0,0,0,4.23,2.27,11,11,0,0,0,5.13-.8c1.71-.6,3.41-1.41,5.25-2a9.73,9.73,0,0,1,5.91-.4,8.73,8.73,0,0,1,4.68,3.95,45.53,45.53,0,0,1,2.8,5.64,20.68,20.68,0,0,0,3.1,5.31,7.46,7.46,0,0,0,2.34,1.78,5.92,5.92,0,0,0,2.79.67,10.7,10.7,0,0,0,5.4-1.68,34.64,34.64,0,0,0,4.43-3.4,27.26,27.26,0,0,1,4.35-3.17,10.74,10.74,0,0,1,4.92-1.38,6.4,6.4,0,0,1,4.48,1.56,12.9,12.9,0,0,1,2.55,3.58,17.39,17.39,0,0,0,2.08,3.3,5.72,5.72,0,0,0,1.34,1.14,4.63,4.63,0,0,0,1.55.54,5,5,0,0,0,2.91-.46,9.73,9.73,0,0,0,2.12-1.39,18.78,18.78,0,0,0,2.46-2.55l.58-.73A1.76,1.76,0,0,1,279.43,305.05Z" style="fill:#fff"></path><path d="M242.93,290.72a26.1,26.1,0,0,0-1-2.53,13.9,13.9,0,0,0-4.93-5.4,13.26,13.26,0,0,0-4.69-1.87,15.65,15.65,0,0,0-5.8.17c-2,.38-4.15,1-6.43,1.32a12.71,12.71,0,0,1-7-.75,8.1,8.1,0,0,1-2.86-2.28,11.06,11.06,0,0,1-1.66-3.12,57.28,57.28,0,0,1-1.63-6.36,16.72,16.72,0,0,0-2.12-5.42,12.62,12.62,0,0,0-3.57-3.57,13.46,13.46,0,0,0-6.94-2.29c-1.75-.05-2.71.21-2.72.14a9.2,9.2,0,0,1,2.73-.34,13.37,13.37,0,0,1,7.13,2.18,12.82,12.82,0,0,1,3.72,3.64,16.66,16.66,0,0,1,2.23,5.54,61.33,61.33,0,0,0,1.65,6.31,10.53,10.53,0,0,0,1.59,3,7.73,7.73,0,0,0,2.67,2.13,12.33,12.33,0,0,0,6.75.71c2.23-.3,4.34-.91,6.41-1.28a15.86,15.86,0,0,1,6-.12,13.15,13.15,0,0,1,4.81,2,13.58,13.58,0,0,1,4.91,5.61A9.39,9.39,0,0,1,242.93,290.72Z" style="fill:#fff"></path><path d="M280.11,291s0,.15-.14.41a11.42,11.42,0,0,1-.52,1.12,9.68,9.68,0,0,1-1.06,1.65,5.9,5.9,0,0,1-2,1.69,4.36,4.36,0,0,1-3.18.37,4.8,4.8,0,0,1-2.67-2.5,19.58,19.58,0,0,0-1.94-3.38,4.6,4.6,0,0,0-3.59-1.53,8.37,8.37,0,0,0-3.94,1.09c-1.19.63-2.27,1.4-3.33,2.09-2.08,1.42-4.3,2.45-6.3,2.36a5,5,0,0,1-4-2.09,3.45,3.45,0,0,1-.49-1.16c-.05-.28-.05-.43,0-.43a5.11,5.11,0,0,0,.68,1.47,4.9,4.9,0,0,0,3.82,1.84c1.88,0,4-1,6-2.39a38.73,38.73,0,0,1,3.35-2.14,8.7,8.7,0,0,1,4.18-1.16,5,5,0,0,1,4,1.72,18.74,18.74,0,0,1,2,3.48,4.41,4.41,0,0,0,2.38,2.32,4,4,0,0,0,2.89-.29,7.55,7.55,0,0,0,3-3.11A15.68,15.68,0,0,1,280.11,291Z" style="fill:#fff"></path></g><g id="freepik--Floor--inject-55"><path d="M453,474.9c0,.14-90.89.26-203,.26S47,475,47,474.9s90.87-.26,203-.26S453,474.75,453,474.9Z" style="fill:#263238"></path></g></svg>