<svg xmlns="http://www.w3.org/2000/svg" xmlns:xlink="http://www.w3.org/1999/xlink" viewBox="0 0 563.69 145.58"><defs><clipPath id="b651941c-cf95-41cd-8812-dc955f3e66d3" transform="translate(0 0)"><rect width="563.7" height="145.58" fill="none"/></clipPath></defs><g id="aa279984-7f30-4d8b-9df1-b1b74a10be72" data-name="Capa 2"><g id="fa0490ef-8ba2-44bf-ad66-72eda9a9ef36" data-name="Capa 1"><g clip-path="url(#b651941c-cf95-41cd-8812-dc955f3e66d3)"><path d="M211.74,99.3Q200,99.3,192,93.94A22,22,0,0,1,182.33,79l12.6-2.92a14,14,0,0,0,5.67,9.6,19.13,19.13,0,0,0,11.6,3.41,16.71,16.71,0,0,0,9.68-2.64c2.57-1.76,3.83-4.45,3.8-8.07a8.42,8.42,0,0,0-1.13-4.1,11.73,11.73,0,0,0-2.41-3A15.66,15.66,0,0,0,218,69q-2.82-1.18-4.61-1.75t-5.53-1.64a6.07,6.07,0,0,0-.72-.2q-2.92-.87-4.77-1.46t-4.48-1.64a28.39,28.39,0,0,1-4.28-2.05,30.67,30.67,0,0,1-3.51-2.56,13.27,13.27,0,0,1-2.92-3.31,18,18,0,0,1-1.77-4.12,18.26,18.26,0,0,1-.71-5.2q0-9.84,7.09-15.32t18-5.48a39.35,39.35,0,0,1,9.38,1.07,32.51,32.51,0,0,1,8.22,3.23,20.13,20.13,0,0,1,6.48,5.79,21.74,21.74,0,0,1,3.69,8.4l-11.83,3a12.93,12.93,0,0,0-5.26-8.42,17.3,17.3,0,0,0-10.06-2.8A16.68,16.68,0,0,0,200.9,37q-3.81,2.57-3.81,7.79a6.68,6.68,0,0,0,.51,2.64,9.75,9.75,0,0,0,1.18,2.1,7.51,7.51,0,0,0,2.1,1.8c1,.59,1.78,1.07,2.48,1.43a24.71,24.71,0,0,0,3.2,1.26q2.16.7,3.36,1l3.77,1c1.6.44,2.89.81,3.86,1.1s2.25.7,3.82,1.23A39.53,39.53,0,0,1,225.19,60c1,.44,2.12,1,3.43,1.74a18.81,18.81,0,0,1,3.23,2.15,27.51,27.51,0,0,1,2.61,2.59,12,12,0,0,1,2.1,3.18,21.5,21.5,0,0,1,1.26,3.76,19.11,19.11,0,0,1,.51,4.51,20.61,20.61,0,0,1-2.18,9.68,17.76,17.76,0,0,1-5.91,6.72A28,28,0,0,1,221.81,98a38.69,38.69,0,0,1-10.07,1.26" transform="translate(0 0)" fill="#fff"/><path d="M293.49,71.68l-.15,3h-39.2q.31,7.38,4.51,11.27a14.71,14.71,0,0,0,10.4,3.9,14.12,14.12,0,0,0,7.66-2.1,13.21,13.21,0,0,0,5.1-6l10.76,1.85a22.73,22.73,0,0,1-8.91,11.58,25.66,25.66,0,0,1-14.5,4.15q-12,0-19.32-7.12t-7.28-19.63q0-12.45,7.28-19.62t19-7.17q11.11,0,17.88,6.58t6.81,19.34M268.85,54.52a15.06,15.06,0,0,0-9.3,2.79q-3.72,2.79-4.89,8.53h27q-.68-5.58-4.1-8.45a13.08,13.08,0,0,0-8.71-2.87" transform="translate(0 0)" fill="#fff"/><path d="M328.21,45.81q8.71,0,13.63,4.63t4.92,13.2V98.32H334.87V66.2c0-3.66-.95-6.36-2.84-8.12a10.31,10.31,0,0,0-7.3-2.64A12,12,0,0,0,316,58.69q-3.39,3.26-3.44,10V98.32H300.8V46.78h11.78v6.1a17.46,17.46,0,0,1,6.64-5.23,21.31,21.31,0,0,1,9-1.84" transform="translate(0 0)" fill="#fff"/><path d="M382.6,45.81q8.72,0,13.63,4.63t4.92,13.2V98.32H389.26V66.2c0-3.66-.94-6.36-2.84-8.12a10.31,10.31,0,0,0-7.3-2.64,12,12,0,0,0-8.71,3.25q-3.39,3.26-3.43,10V98.32H355.19V46.78H367v6.1a17.35,17.35,0,0,1,6.63-5.23,21.31,21.31,0,0,1,9-1.84" transform="translate(0 0)" fill="#fff"/><path d="M417.63,36.94a7.09,7.09,0,0,1-5.13-2.12,7.15,7.15,0,0,1,0-10.2,7.26,7.26,0,0,1,12.37,5.1,7.29,7.29,0,0,1-7.22,7.22m-6.05,9.84h11.84V98.32H411.58Z" transform="translate(0 0)" fill="#fff"/><path d="M457.73,99.3q-11.94,0-19.53-7.25T430.62,72.5q0-12.19,7.58-19.44t19.53-7.25q12,0,19.57,7.22t7.58,19.47q0,12.3-7.58,19.55T457.73,99.3m-.11-9.53A14.45,14.45,0,0,0,468.79,85q4.36-4.75,4.36-12.5T468.79,60a14.51,14.51,0,0,0-11.17-4.73,14.17,14.17,0,0,0-11,4.73q-4.31,4.74-4.31,12.48T446.63,85a14.1,14.1,0,0,0,11,4.77" transform="translate(0 0)" fill="#fff"/><path d="M503.46,55.44A15.6,15.6,0,0,1,510,48.88a20.35,20.35,0,0,1,10.07-2.66V57q-8.2,0-12.17,3.45t-4,11.61V98.32H492.08V46.78h11.38Z" transform="translate(0 0)" fill="#fff"/><path d="M543.56,99.3q-8.65,0-14.45-3.67A15.26,15.26,0,0,1,522,85l10-2.82a10.69,10.69,0,0,0,4.05,6.49,12.46,12.46,0,0,0,7.48,2.17,12,12,0,0,0,6.25-1.53,5.27,5.27,0,0,0,2.51-5,4.75,4.75,0,0,0-.67-2.54A6.92,6.92,0,0,0,550.07,80a10.84,10.84,0,0,0-2.64-1.46,29.16,29.16,0,0,0-3.13-1.13l-3.82-1.13q-2.4-.72-4-1.23a36.79,36.79,0,0,1-4.92-1.89,23.64,23.64,0,0,1-4.05-2.57,10,10,0,0,1-3.1-4,14.18,14.18,0,0,1-1-5.66A13.53,13.53,0,0,1,526,52.42a14.87,14.87,0,0,1,6.87-5,28.13,28.13,0,0,1,9.73-1.56,24,24,0,0,1,13,3.33,14.57,14.57,0,0,1,6.59,10.19l-9.33,2.21a9.28,9.28,0,0,0-3.71-5.74,12.67,12.67,0,0,0-12.5-.39,4.84,4.84,0,0,0-2.44,4.44,6,6,0,0,0,.18,1.51,2.92,2.92,0,0,0,.69,1.25c.35.38.65.71.93,1a4.73,4.73,0,0,0,1.33.9c.61.31,1.11.55,1.48.72a17.18,17.18,0,0,0,1.85.64l1.89.56c.41.12,1.12.31,2.13.56l2.13.54q2.86.77,4.89,1.44a27.81,27.81,0,0,1,4.46,2,15.59,15.59,0,0,1,3.94,2.89A12.9,12.9,0,0,1,562.67,78a15.05,15.05,0,0,1,1,5.66,15.21,15.21,0,0,1-1.64,7.25,12.4,12.4,0,0,1-4.48,4.87,21.82,21.82,0,0,1-6.35,2.64,31.78,31.78,0,0,1-7.66.87" transform="translate(0 0)" fill="#fff"/><path d="M196.18,145.53a7.51,7.51,0,0,1-5.65-2.34,9.4,9.4,0,0,1,0-12.18,8.07,8.07,0,0,1,10.16-.95,7.36,7.36,0,0,1,2.75,3.77l-2.14.43a5.28,5.28,0,0,0-5.12-3.62,5.17,5.17,0,0,0-4,1.78,7.62,7.62,0,0,0,0,9.37,5.18,5.18,0,0,0,4,1.79A5.31,5.31,0,0,0,201.3,140l2.14.42a7.33,7.33,0,0,1-2.75,3.79,7.62,7.62,0,0,1-4.51,1.37" transform="translate(0 0)" fill="#fff"/><path d="M217.55,129h2.25v16.25h-2.17l0-2.25a5.13,5.13,0,0,1-2,1.9,5.74,5.74,0,0,1-2.8.67,5.44,5.44,0,0,1-3.95-1.47,5.51,5.51,0,0,1-1.52-4.15V129h2.27v10.43a4.21,4.21,0,0,0,1.06,3.14,3.76,3.76,0,0,0,2.73,1,4,4,0,0,0,3-1.19,4.77,4.77,0,0,0,1.15-3.41Z" transform="translate(0 0)" fill="#fff"/><path d="M228,124.19a1.57,1.57,0,0,1-1.18.5,1.73,1.73,0,0,1-1.7-1.69,1.57,1.57,0,0,1,.51-1.19,1.62,1.62,0,0,1,1.19-.49,1.69,1.69,0,0,1,1.68,1.68,1.63,1.63,0,0,1-.5,1.19m-2.34,4.8H228v16.25h-2.27Z" transform="translate(0 0)" fill="#fff"/><path d="M246,119.46h2.25v25.78h-2.2l0-3.52a6.9,6.9,0,0,1-2.44,2.8,6.31,6.31,0,0,1-3.57,1.06,7.05,7.05,0,0,1-2.92-.62,7.14,7.14,0,0,1-2.4-1.7,8.18,8.18,0,0,1-1.61-2.68,10,10,0,0,1-.59-3.46,9.65,9.65,0,0,1,.6-3.45,7.89,7.89,0,0,1,1.62-2.67,7.5,7.5,0,0,1,2.39-1.7,7.07,7.07,0,0,1,2.91-.61,6.52,6.52,0,0,1,3.57,1,6.63,6.63,0,0,1,2.42,2.77Zm-5.54,24.1a5.18,5.18,0,0,0,4-1.86,7.16,7.16,0,0,0,0-9.16,5.15,5.15,0,0,0-4-1.87,5.26,5.26,0,0,0-4.06,1.81,7.35,7.35,0,0,0,0,9.28,5.29,5.29,0,0,0,4.06,1.8" transform="translate(0 0)" fill="#fff"/><path d="M257.81,145.56a5.38,5.38,0,0,1-3.53-1.13,4.09,4.09,0,0,1-1.37-3.33,4.64,4.64,0,0,1,.43-2.09,3.74,3.74,0,0,1,1.27-1.47,7.78,7.78,0,0,1,1.9-.92A17.08,17.08,0,0,1,259,136l2.74-.42c.94-.17,1.41-.67,1.41-1.52a3.26,3.26,0,0,0-1.08-2.7,4.35,4.35,0,0,0-2.78-.86,4.58,4.58,0,0,0-2.7.78,3.17,3.17,0,0,0-1.28,2.36l-2.06-.51a4.73,4.73,0,0,1,1.95-3.33,7.07,7.07,0,0,1,4.16-1.13,8,8,0,0,1,2.31.31,5.73,5.73,0,0,1,1.9.94,4.17,4.17,0,0,1,1.32,1.73,6.32,6.32,0,0,1,.48,2.56v7a2.86,2.86,0,0,0,.4,1.81,1.7,1.7,0,0,0,1.32.45h.27v1.73h-1.17a2.6,2.6,0,0,1-2.92-2.23h-.1a6.32,6.32,0,0,1-5.36,2.55m.52-1.88a4.39,4.39,0,0,0,3.67-1.74,7.72,7.72,0,0,0,1.35-4.84l-4.4.77a6.44,6.44,0,0,0-2.88,1,2.41,2.41,0,0,0-.93,2.05A2.46,2.46,0,0,0,256,143a3.71,3.71,0,0,0,2.31.68" transform="translate(0 0)" fill="#fff"/><path d="M283.19,119.46h2.25v25.78h-2.2l0-3.52a6.82,6.82,0,0,1-2.44,2.8,6.31,6.31,0,0,1-3.57,1.06,7.28,7.28,0,0,1-5.31-2.32,8,8,0,0,1-1.61-2.68,9.79,9.79,0,0,1-.6-3.46,9.44,9.44,0,0,1,.61-3.45A7.89,7.89,0,0,1,271.9,131a7.29,7.29,0,0,1,2.39-1.7,7,7,0,0,1,2.9-.61,6.52,6.52,0,0,1,3.57,1,6.59,6.59,0,0,1,2.43,2.77Zm-5.54,24.1a5.18,5.18,0,0,0,4-1.86,7.2,7.2,0,0,0,0-9.16,5.18,5.18,0,0,0-4-1.87,5.27,5.27,0,0,0-4.07,1.81,7.38,7.38,0,0,0,0,9.28,5.29,5.29,0,0,0,4.07,1.8" transform="translate(0 0)" fill="#fff"/><path d="M297.92,145.56a8,8,0,0,1-4-1,7.45,7.45,0,0,1-2.86-3,9.23,9.23,0,0,1-1-4.47,8.36,8.36,0,0,1,2.25-6.1,8.14,8.14,0,0,1,11.36,0,9.5,9.5,0,0,1,0,12.24,7.52,7.52,0,0,1-5.66,2.32m-4.07-3.74a5.21,5.21,0,0,0,4,1.79,5.27,5.27,0,0,0,4.07-1.79,6.75,6.75,0,0,0,1.64-4.72,6.63,6.63,0,0,0-1.64-4.68,5.29,5.29,0,0,0-4.07-1.78,5.24,5.24,0,0,0-4,1.78,6.66,6.66,0,0,0-1.62,4.68,6.78,6.78,0,0,0,1.62,4.72" transform="translate(0 0)" fill="#fff"/><path d="M315.28,145.56a7.25,7.25,0,0,1-4.25-1.19A4.84,4.84,0,0,1,309,141l2-.58a3.65,3.65,0,0,0,1.39,2.41,4.61,4.61,0,0,0,2.87.88,5.89,5.89,0,0,0,1.74-.25,2.79,2.79,0,0,0,1.32-.91,2.37,2.37,0,0,0,.52-1.66,2.57,2.57,0,0,0-.23-1,2.16,2.16,0,0,0-.56-.73,3.88,3.88,0,0,0-.88-.54,10.56,10.56,0,0,0-1.11-.42l-1.34-.39-.55-.15q-.86-.26-1.41-.45a9.8,9.8,0,0,1-1.25-.56,3.91,3.91,0,0,1-1.09-.81,3.67,3.67,0,0,1-.68-1.12,4.05,4.05,0,0,1-.29-1.56,3.88,3.88,0,0,1,1.57-3.36,6.54,6.54,0,0,1,3.94-1.14,6.74,6.74,0,0,1,3.86,1.06,4.47,4.47,0,0,1,1.91,3.17l-1.93.52a3.21,3.21,0,0,0-1.3-2.24,4.2,4.2,0,0,0-2.51-.77,4.91,4.91,0,0,0-1.22.15,4.07,4.07,0,0,0-1.07.46,2.28,2.28,0,0,0-.8.83,2.41,2.41,0,0,0-.3,1.21,2.11,2.11,0,0,0,.13.77,3.25,3.25,0,0,0,.28.59,1.67,1.67,0,0,0,.53.47l.61.37a5.38,5.38,0,0,0,.78.3q.56.18.81.24l.91.24c.66.16,1.18.31,1.57.42a10.4,10.4,0,0,1,1.41.57,4.59,4.59,0,0,1,1.27.84,3.91,3.91,0,0,1,.8,1.23,4.35,4.35,0,0,1,.33,1.74,4,4,0,0,1-1.63,3.51,6.89,6.89,0,0,1-4.11,1.17" transform="translate(0 0)" fill="#fff"/><path d="M346.36,119.46h2.25v25.78h-2.2l0-3.52a6.85,6.85,0,0,1-2.45,2.8,6.3,6.3,0,0,1-3.56,1.06,7.13,7.13,0,0,1-2.93-.62,7.2,7.2,0,0,1-2.39-1.7,8.18,8.18,0,0,1-1.61-2.68,9.79,9.79,0,0,1-.6-3.46,9.66,9.66,0,0,1,.61-3.45,7.89,7.89,0,0,1,1.62-2.67,7.39,7.39,0,0,1,2.39-1.7,7.07,7.07,0,0,1,2.91-.61,6.51,6.51,0,0,1,3.56,1,6.59,6.59,0,0,1,2.43,2.77Zm-5.54,24.1a5.18,5.18,0,0,0,4-1.86,7.2,7.2,0,0,0,0-9.16,5.15,5.15,0,0,0-4-1.87,5.25,5.25,0,0,0-4.06,1.81,7.35,7.35,0,0,0,0,9.28,5.27,5.27,0,0,0,4.06,1.8" transform="translate(0 0)" fill="#fff"/><path d="M368.34,136.75l0,.69H355.36A6.37,6.37,0,0,0,357,142a5.41,5.41,0,0,0,4,1.6,5.2,5.2,0,0,0,2.89-.85,5.67,5.67,0,0,0,2-2.34l2,.52a7.63,7.63,0,0,1-2.77,3.38,7.28,7.28,0,0,1-4.15,1.24,7.55,7.55,0,0,1-5.66-2.27,8.54,8.54,0,0,1-2.2-6.17,10.06,10.06,0,0,1,.6-3.55,7.12,7.12,0,0,1,4.12-4.32,8.25,8.25,0,0,1,3.09-.58,7,7,0,0,1,5.32,2.1,8.35,8.35,0,0,1,2,6M361,130.5a5.35,5.35,0,0,0-3.7,1.33,5.86,5.86,0,0,0-1.84,3.81h10.61a5.55,5.55,0,0,0-1.52-3.84,5,5,0,0,0-3.55-1.3" transform="translate(0 0)" fill="#fff"/><path d="M388,145.53a7.49,7.49,0,0,1-5.65-2.34,9.4,9.4,0,0,1,0-12.18,7.55,7.55,0,0,1,5.65-2.32,7.66,7.66,0,0,1,4.51,1.37,7.34,7.34,0,0,1,2.74,3.77l-2.13.43a5.3,5.3,0,0,0-5.12-3.62,5.2,5.2,0,0,0-4,1.78,7.66,7.66,0,0,0,0,9.37,5.21,5.21,0,0,0,4,1.79,5.33,5.33,0,0,0,5.12-3.63l2.13.42a7.31,7.31,0,0,1-2.74,3.79,7.66,7.66,0,0,1-4.51,1.37" transform="translate(0 0)" fill="#fff"/><path d="M406,145.56a8,8,0,0,1-4-1,7.36,7.36,0,0,1-2.85-3,9.12,9.12,0,0,1-1.06-4.47,8.36,8.36,0,0,1,2.25-6.1,8.15,8.15,0,0,1,11.37,0,9.5,9.5,0,0,1,0,12.24,7.55,7.55,0,0,1-5.67,2.32M402,141.82a5.21,5.21,0,0,0,4.05,1.79,5.29,5.29,0,0,0,4.08-1.79,6.74,6.74,0,0,0,1.63-4.72,6.62,6.62,0,0,0-1.63-4.68,5.31,5.31,0,0,0-4.08-1.78,5.24,5.24,0,0,0-4.05,1.78,6.66,6.66,0,0,0-1.62,4.68,6.78,6.78,0,0,0,1.62,4.72" transform="translate(0 0)" fill="#fff"/><path d="M425.45,128.69a5.42,5.42,0,0,1,3.95,1.47,5.51,5.51,0,0,1,1.51,4.15v10.93h-2.25V134.82a4.21,4.21,0,0,0-1.06-3.15,3.68,3.68,0,0,0-2.7-1,4,4,0,0,0-3,1.19,4.68,4.68,0,0,0-1.17,3.42v10h-2.27V129h2.27v2.2a5.2,5.2,0,0,1,4.73-2.5" transform="translate(0 0)" fill="#fff"/><path d="M437.21,125a8.65,8.65,0,0,1,.31-2.43,4.5,4.5,0,0,1,.82-1.61,3.41,3.41,0,0,1,1.32-.94,6.38,6.38,0,0,1,1.67-.45,14.41,14.41,0,0,1,2-.11v1.94h-.65l-.62,0a2.27,2.27,0,0,0-.62.09l-.52.19a1.65,1.65,0,0,0-.5.3,5.38,5.38,0,0,0-.39.46,2.12,2.12,0,0,0-.31.64,5.26,5.26,0,0,0-.19.84,7.31,7.31,0,0,0-.07,1.09V129h3.87v1.85h-3.87v14.4h-2.24v-14.4h-3.12V129h3.12Zm9.66-3.19a1.62,1.62,0,0,1,1.19-.49,1.69,1.69,0,0,1,1.68,1.68,1.63,1.63,0,0,1-.5,1.19,1.57,1.57,0,0,1-1.18.5,1.73,1.73,0,0,1-1.7-1.69,1.57,1.57,0,0,1,.51-1.19m0,7.18h2.27v16.25H446.9Z" transform="translate(0 0)" fill="#fff"/><path d="M458.73,145.56a5.39,5.39,0,0,1-3.54-1.13,4.09,4.09,0,0,1-1.37-3.33,4.78,4.78,0,0,1,.43-2.09,3.76,3.76,0,0,1,1.28-1.47,7.61,7.61,0,0,1,1.9-.92,16.77,16.77,0,0,1,2.49-.58l2.73-.42c.94-.17,1.41-.67,1.41-1.52a3.26,3.26,0,0,0-1.08-2.7,4.35,4.35,0,0,0-2.78-.86,4.52,4.52,0,0,0-2.69.78,3.17,3.17,0,0,0-1.28,2.36l-2.07-.51a4.74,4.74,0,0,1,2-3.33,7,7,0,0,1,4.15-1.13,8.14,8.14,0,0,1,2.32.31,5.78,5.78,0,0,1,1.89.94,4.17,4.17,0,0,1,1.32,1.73,6.32,6.32,0,0,1,.48,2.56v7a2.86,2.86,0,0,0,.4,1.81,1.71,1.71,0,0,0,1.33.45h.27v1.73H467.1a2.6,2.6,0,0,1-2.92-2.23h-.1a6.3,6.3,0,0,1-5.35,2.55m.52-1.88a4.39,4.39,0,0,0,3.66-1.74,7.66,7.66,0,0,0,1.36-4.84l-4.4.77a6.44,6.44,0,0,0-2.88,1,2.8,2.8,0,0,0-.05,4.12,3.71,3.71,0,0,0,2.31.68" transform="translate(0 0)" fill="#fff"/><path d="M479.27,128.69a5.41,5.41,0,0,1,3.94,1.47,5.51,5.51,0,0,1,1.51,4.15v10.93h-2.25V134.82a4.21,4.21,0,0,0-1.06-3.15,3.68,3.68,0,0,0-2.7-1,4,4,0,0,0-3,1.19,4.68,4.68,0,0,0-1.17,3.42v10h-2.26V129h2.26v2.2a5.2,5.2,0,0,1,4.74-2.5" transform="translate(0 0)" fill="#fff"/><polygon points="491.66 143.34 500.93 143.34 500.93 145.24 488.14 145.24 497.24 130.91 488.61 130.91 488.61 128.99 500.85 128.99 491.66 143.34" fill="#fff"/><path d="M507.91,145.56a5.39,5.39,0,0,1-3.54-1.13A4.09,4.09,0,0,1,503,141.1a4.78,4.78,0,0,1,.43-2.09,3.76,3.76,0,0,1,1.28-1.47,7.61,7.61,0,0,1,1.9-.92,16.77,16.77,0,0,1,2.49-.58l2.73-.42c.94-.17,1.41-.67,1.41-1.52a3.26,3.26,0,0,0-1.08-2.7,4.35,4.35,0,0,0-2.78-.86,4.52,4.52,0,0,0-2.69.78,3.17,3.17,0,0,0-1.28,2.36l-2.07-.51a4.74,4.74,0,0,1,2-3.33,7,7,0,0,1,4.15-1.13,8.14,8.14,0,0,1,2.32.31,5.78,5.78,0,0,1,1.89.94,4.17,4.17,0,0,1,1.32,1.73,6.32,6.32,0,0,1,.48,2.56v7a2.86,2.86,0,0,0,.4,1.81,1.71,1.71,0,0,0,1.33.45h.27v1.73h-1.18a2.6,2.6,0,0,1-2.92-2.23h-.1a6.3,6.3,0,0,1-5.35,2.55m.52-1.88a4.39,4.39,0,0,0,3.66-1.74,7.66,7.66,0,0,0,1.36-4.84l-4.4.77a6.44,6.44,0,0,0-2.88,1,2.8,2.8,0,0,0-.05,4.12,3.71,3.71,0,0,0,2.31.68" transform="translate(0 0)" fill="#fff"/><path d="M124.56,5.28a33.71,33.71,0,0,0-5.63-2.83C106.6-2.37,91.7.07,81.94,9.24c-6.64,6.24-13,12.76-19.5,19.18Q48.69,42.05,35,55.71c-1.75,1.73-1.87,1.68-3.61-.11-2.48-2.55-5-5-7.47-7.59a18.42,18.42,0,0,1-2.06-2.53h0l0,0-.11-.16a16.15,16.15,0,0,1-2.06-13,17.09,17.09,0,0,1,28.52-8.19c1.23,1.2,2.49,2.36,3.75,3.52a1.67,1.67,0,0,0,2.59-.05L65.27,16.76a1.7,1.7,0,0,0,0-2.72c-1.87-1.85-3.62-3.85-5.65-5.51A36.1,36.1,0,0,0,21.29,3.29a38.61,38.61,0,0,0-8,5C-1.44,20.06-4.44,42.42,6.89,57.45c2.78,3.69,6.25,6.87,9.48,10.21C21,72.5,25.79,77.27,30.51,82.08c2.28,2.33,2.71,2.35,5,.07Q41.13,76.58,46.71,71,69.84,47.9,93,24.81c4.55-4.52,10-6.67,16.38-5.21,6.64,1.52,11.1,5.62,12.9,12.22A16.14,16.14,0,0,1,121,44.21a18.47,18.47,0,0,1-2,2.88l-.1.12h0c-.3.35-.6.69-.93,1C111.88,54.5,105.61,60.6,99.43,66.8Q86,80.32,72.55,93.9c-1,1.06-1.7,1.17-2.8.06C64.16,88.3,58.49,82.72,52.87,77.1c-1.92-1.92-2.59-2-4.54,0-3,2.93-5.91,5.88-8.86,8.81-2.24,2.24-2.25,2.69,0,4.9q14.73,14.74,29.48,29.48c1.85,1.85,2.36,1.86,4.2,0Q102.39,91,131.65,61.66c6.95-7,10.21-15.53,10.42-26.26C141.58,23,136,12.48,124.56,5.28" transform="translate(0 0)" fill="#fff"/><path d="M126,112.77a8.75,8.75,0,1,1-8.75-8.75,8.75,8.75,0,0,1,8.75,8.75" transform="translate(0 0)" fill="#fff"/></g></g></g></svg>